<svg width="423" height="426" viewBox="0 0 423 426" fill="none" xmlns="http://www.w3.org/2000/svg">
<g filter="url(#filter0_d_120_1331)">
<path d="M125.428 327.645C100.433 317.506 82.7452 294.802 79.0281 268.086L68.9501 195.651C65.2331 168.935 76.0513 142.265 97.3297 125.688L155.021 80.7424C176.3 64.1653 204.806 60.1992 229.801 70.3382L297.571 97.828C322.566 107.967 340.254 130.671 343.971 157.387L354.049 229.822C357.766 256.538 346.948 283.208 325.669 299.785L267.978 344.731C246.699 361.308 218.193 365.274 193.198 355.135L125.428 327.645Z" stroke="#2966FF" shape-rendering="crispEdges"/>
</g>
<g filter="url(#filter1_d_120_1331)">
<path d="M92.9663 293.743C72.5763 276.084 63.156 248.889 68.2537 222.402L82.0752 150.587C87.1729 124.099 106.014 102.343 131.502 93.5144L200.606 69.5766C226.094 60.7477 254.356 66.1869 274.746 83.8454L330.029 131.723C350.418 149.381 359.839 176.576 354.741 203.064L340.92 274.879C335.822 301.366 316.981 323.122 291.493 331.951L222.389 355.889C196.901 364.718 168.639 359.278 148.249 341.62L92.9663 293.743Z" stroke="#2966FF" shape-rendering="crispEdges"/>
</g>
<g opacity="0.7" filter="url(#filter2_f_120_1331)">
<path d="M125.428 327.645C100.433 317.506 82.7452 294.802 79.0281 268.086L68.9501 195.651C65.2331 168.935 76.0513 142.265 97.3297 125.688L155.021 80.7424C176.3 64.1653 204.806 60.1992 229.801 70.3382L297.571 97.828C322.566 107.967 340.254 130.671 343.971 157.387L354.049 229.822C357.766 256.538 346.948 283.208 325.669 299.785L267.978 344.731C246.699 361.308 218.193 365.274 193.198 355.135L125.428 327.645Z" stroke="#2966FF"/>
</g>
<g filter="url(#filter3_f_120_1331)">
<path d="M92.9663 293.743C72.5763 276.084 63.156 248.889 68.2537 222.402L82.0751 150.587C87.1729 124.099 106.014 102.343 131.502 93.5145L200.606 69.5767C226.094 60.7477 254.356 66.1869 274.746 83.8454L330.029 131.723C350.418 149.381 359.839 176.576 354.741 203.064L340.92 274.879C335.822 301.366 316.981 323.122 291.493 331.951L222.389 355.889C196.901 364.718 168.639 359.278 148.249 341.62L92.9663 293.743Z" stroke="#2966FF"/>
</g>
<g opacity="0.3" filter="url(#filter4_di_120_1331)">
<path d="M74.5822 272.717L70.8447 267.682L71.2462 267.384L70.9347 266.964C70.8325 266.826 70.7307 266.688 70.6295 266.55L70.226 266.845C68.9987 265.168 67.8468 263.45 66.771 261.697L67.1972 261.436C67.0182 261.144 66.8414 260.851 66.6666 260.557L66.2369 260.813C65.1755 259.029 64.1919 257.21 63.2867 255.359L63.7358 255.14C63.5854 254.832 63.4372 254.524 63.2912 254.215L62.8391 254.429C61.9533 252.554 61.1472 250.649 60.4215 248.719L60.8895 248.543C60.769 248.223 60.6508 247.902 60.5347 247.58L60.0644 247.749C59.3618 245.801 58.7405 243.828 58.2011 241.836L58.6837 241.705C58.5943 241.375 58.507 241.044 58.4221 240.712L57.9378 240.837C57.4241 238.832 56.993 236.809 56.645 234.773L57.1378 234.689C57.0801 234.351 57.0247 234.014 56.9717 233.676L56.4777 233.753C56.1571 231.711 55.9198 229.656 55.7665 227.594L56.2652 227.557C56.2398 227.216 56.2167 226.874 56.196 226.533L55.6969 226.563C55.5717 224.501 55.5305 222.433 55.5738 220.364L56.0737 220.375C56.0808 220.033 56.0903 219.691 56.1021 219.349L55.6024 219.331C55.6736 217.269 55.8289 215.206 56.069 213.149L56.5656 213.207C56.6052 212.867 56.6472 212.527 56.6915 212.188L56.1957 212.123C56.4625 210.079 56.8132 208.04 57.2484 206.013L57.7373 206.118C57.809 205.784 57.8831 205.45 57.9595 205.116L57.4721 205.005C57.9318 202.997 58.4748 201.001 59.1017 199.022L59.5784 199.173C59.6816 198.847 59.7871 198.522 59.8949 198.197L59.4203 198.04C60.0682 196.087 60.7982 194.152 61.6111 192.24L62.0713 192.435C62.1383 192.277 62.2059 192.12 62.2741 191.962L62.4817 191.483L62.0229 191.284L64.5145 185.53L64.9733 185.729L65.3886 184.77L64.9298 184.571L67.4214 178.817L67.8803 179.015L68.2955 178.056L67.8367 177.858L70.3283 172.103L70.7872 172.302L71.2025 171.343L70.7436 171.144L73.2353 165.39L73.6941 165.589L74.1094 164.63L73.6505 164.431L76.1422 158.677L76.601 158.875L77.0163 157.916L76.5575 157.718L79.0491 151.964L79.5079 152.162L79.9232 151.203L79.4644 151.004L81.956 145.25L82.4149 145.449L82.8301 144.49L82.3713 144.291L84.8629 138.537L85.3218 138.736L85.737 137.777L85.2782 137.578L87.7699 131.824L88.2287 132.022L88.644 131.063L88.1851 130.865L90.6768 125.11L91.1356 125.309L91.5509 124.35L91.0921 124.151L93.5837 118.397L94.0425 118.596L94.2502 118.116C94.3183 117.959 94.387 117.802 94.4562 117.645L93.9987 117.443C94.8374 115.542 95.7491 113.685 96.7296 111.877L97.1692 112.115C97.3323 111.814 97.4974 111.515 97.6644 111.217L97.2281 110.972C98.2424 109.161 99.3264 107.4 100.476 105.691L100.891 105.97C101.082 105.686 101.275 105.403 101.469 105.122L101.058 104.837C102.239 103.133 103.486 101.482 104.794 99.8889L105.181 100.206C105.398 99.9417 105.617 99.6788 105.837 99.4174L105.455 99.0949C106.792 97.5122 108.189 95.9877 109.645 94.5245L109.999 94.8771C110.241 94.6345 110.484 94.3935 110.728 94.1542L110.379 93.7968C111.858 92.3497 113.394 90.9649 114.984 89.6454L115.303 90.0301C115.566 89.8115 115.831 89.5946 116.097 89.3796L115.783 88.9906C117.392 87.6917 119.052 86.4589 120.761 85.2953L121.043 85.7085C121.326 85.5159 121.61 85.3252 121.895 85.1364L121.62 84.7193C123.343 83.58 125.113 82.5103 126.926 81.5134L127.167 81.9515C127.467 81.7867 127.768 81.6239 128.07 81.463L127.835 81.0217C129.657 80.052 131.521 79.1553 133.423 78.3345L133.621 78.7935C133.935 78.658 134.25 78.5245 134.566 78.3932L134.374 77.9315C136.278 77.1402 138.219 76.4247 140.192 75.788L140.346 76.2638C140.671 76.1589 140.997 76.056 141.324 75.9554L141.177 75.4775C143.146 74.8717 145.146 74.3441 147.173 73.8976L147.281 74.3859C147.614 74.3123 147.949 74.241 148.284 74.172L148.183 73.6822C150.198 73.2671 152.239 72.9319 154.302 72.6795L154.362 73.1758C154.533 73.1549 154.703 73.1347 154.873 73.115L155.392 73.0551L155.335 72.5584L161.564 71.8391L161.621 72.3358L162.66 72.2159L162.602 71.7192L168.831 70.9999L168.889 71.4966L169.927 71.3767L169.87 70.88L176.099 70.1607L176.156 70.6574L177.194 70.5375L177.137 70.0408L183.366 69.3215L183.423 69.8182L184.462 69.6983L184.404 69.2016L190.633 68.4824L190.691 68.9791L191.729 68.8592L191.672 68.3625L197.901 67.6432L197.958 68.1399L198.996 68.02L198.939 67.5233L205.168 66.804L205.225 67.3007L206.264 67.1808L206.206 66.6841L212.435 65.9648L212.493 66.4615L213.531 66.3416L213.474 65.8449L219.703 65.1256L219.76 65.6223L220.798 65.5025L220.741 65.0058L226.97 64.2865L227.027 64.7832L228.066 64.6633L228.008 64.1666L234.237 63.4473L234.295 63.944L234.814 63.884C234.984 63.8644 235.155 63.8453 235.325 63.8268L235.271 63.3297C237.337 63.1053 239.401 62.9666 241.457 62.9117L241.47 63.4115C241.813 63.4024 242.154 63.3955 242.496 63.391L242.49 62.8911C244.565 62.8638 246.633 62.9218 248.688 63.063L248.654 63.5618C248.995 63.5852 249.336 63.611 249.677 63.6391L249.718 63.1407C251.784 63.311 253.837 63.5654 255.871 63.9018L255.79 64.3951C256.127 64.451 256.465 64.5091 256.801 64.5695L256.889 64.0774C258.928 64.4432 260.947 64.8915 262.942 65.4204L262.814 65.9038C263.145 65.9915 263.475 66.0814 263.805 66.1736L263.939 65.6921C265.932 66.2495 267.9 66.8876 269.837 67.6042L269.664 68.0732C269.985 68.192 270.305 68.3129 270.624 68.436L270.804 67.9694C272.733 68.713 274.631 69.5348 276.493 70.433L276.276 70.8833C276.584 71.032 276.892 71.1828 277.198 71.3356L277.421 70.8882C279.269 71.8108 281.081 72.8091 282.851 73.8809L282.592 74.3086C282.885 74.4858 283.176 74.6651 283.466 74.8464L283.731 74.4223C285.482 75.5152 287.19 76.681 288.852 77.9175L288.554 78.3186C288.828 78.5228 289.101 78.729 289.373 78.937L289.677 78.54C291.314 79.7934 292.904 81.1163 294.442 82.5069L294.107 82.8777C294.36 83.107 294.613 83.3381 294.863 83.5711L295.204 83.2048C296.713 84.6068 298.17 86.0749 299.57 87.6073L299.201 87.9446C299.431 88.1969 299.66 88.451 299.888 88.7067L300.261 88.3745C301.628 89.9117 302.939 91.5115 304.189 93.1718L303.79 93.4725C303.893 93.6095 303.995 93.7468 304.098 93.8845L304.409 94.3041L304.811 94.0061L308.548 99.041L308.147 99.339L308.769 100.178L309.171 99.8802L312.908 104.915L312.507 105.213L313.13 106.052L313.531 105.754L317.269 110.789L316.867 111.087L317.49 111.926L317.892 111.628L321.629 116.663L321.228 116.961L321.851 117.801L322.252 117.502L325.99 122.537L325.588 122.835L326.211 123.675L326.613 123.377L330.35 128.412L329.949 128.71L330.572 129.549L330.973 129.251L334.711 134.286L334.309 134.584L334.932 135.423L335.333 135.125L339.071 140.16L338.669 140.458L339.292 141.297L339.694 140.999L343.431 146.034L343.03 146.332L343.653 147.171L344.054 146.873L347.792 151.908L347.39 152.206L348.013 153.045L348.415 152.747L352.152 157.782L351.751 158.08L352.062 158.5C352.093 158.542 352.124 158.583 352.155 158.625C352.226 158.721 352.297 158.817 352.367 158.914L352.771 158.618C353.998 160.296 355.15 162.013 356.226 163.767L355.8 164.028C355.902 164.195 356.004 164.363 356.106 164.531C356.181 164.656 356.256 164.781 356.33 164.906L356.76 164.651C357.821 166.435 358.805 168.254 359.71 170.104L359.261 170.324C359.411 170.631 359.56 170.94 359.706 171.249L360.158 171.035C361.044 172.91 361.85 174.815 362.575 176.745L362.107 176.921C362.228 177.241 362.346 177.562 362.462 177.884L362.933 177.714C363.635 179.663 364.256 181.636 364.796 183.628L364.313 183.758C364.403 184.089 364.49 184.42 364.575 184.751L365.059 184.627C365.573 186.632 366.004 188.655 366.352 190.691L365.859 190.775C365.917 191.112 365.972 191.45 366.025 191.788L366.519 191.711C366.84 193.753 367.077 195.808 367.23 197.87L366.732 197.907C366.757 198.248 366.78 198.589 366.801 198.931L367.3 198.901C367.425 200.963 367.466 203.031 367.423 205.099L366.923 205.089C366.916 205.431 366.907 205.773 366.895 206.115L367.394 206.133C367.323 208.195 367.168 210.258 366.928 212.315L366.431 212.257C366.392 212.597 366.35 212.936 366.305 213.276L366.801 213.34C366.534 215.385 366.184 217.423 365.749 219.451L365.26 219.346C365.188 219.68 365.114 220.014 365.037 220.348L365.525 220.459C365.065 222.467 364.522 224.463 363.895 226.442L363.419 226.291C363.315 226.616 363.21 226.942 363.102 227.267L363.577 227.424C362.929 229.377 362.199 231.311 361.386 233.224L360.926 233.029C360.859 233.186 360.791 233.344 360.723 233.501L360.515 233.981L360.974 234.18L358.482 239.934L358.024 239.735L357.608 240.694L358.067 240.893L355.575 246.647L355.117 246.448L354.701 247.407L355.16 247.606L352.669 253.36L352.21 253.162L351.794 254.121L352.253 254.319L349.762 260.074L349.303 259.875L348.888 260.834L349.346 261.033L346.855 266.787L346.396 266.588L345.981 267.547L346.439 267.746L343.948 273.5L343.489 273.302L343.074 274.261L343.533 274.459L341.041 280.214L340.582 280.015L340.167 280.974L340.626 281.173L338.134 286.927L337.675 286.728L337.26 287.687L337.719 287.886L335.227 293.64L334.768 293.441L334.353 294.401L334.812 294.599L332.32 300.353L331.861 300.155L331.446 301.114L331.905 301.312L329.413 307.067L328.954 306.868L328.747 307.348C328.679 307.505 328.61 307.662 328.541 307.819L328.998 308.021C328.159 309.922 327.248 311.779 326.267 313.587L325.828 313.349C325.665 313.649 325.5 313.949 325.333 314.247L325.769 314.491C324.755 316.303 323.671 318.064 322.521 319.773L322.106 319.494C321.915 319.778 321.722 320.061 321.528 320.342L321.939 320.626C320.758 322.331 319.511 323.981 318.203 325.575L317.816 325.258C317.599 325.522 317.38 325.785 317.159 326.046L317.542 326.369C316.205 327.952 314.807 329.476 313.352 330.939L312.998 330.587C312.756 330.829 312.513 331.07 312.269 331.31L312.618 331.667C311.139 333.114 309.603 334.499 308.013 335.818L307.694 335.434C307.431 335.652 307.166 335.869 306.9 336.084L307.214 336.473C305.605 337.772 303.944 339.005 302.236 340.169L301.954 339.755C301.671 339.948 301.387 340.139 301.102 340.327L301.377 340.744C299.654 341.884 297.884 342.953 296.071 343.95L295.83 343.512C295.53 343.677 295.229 343.84 294.927 344.001L295.162 344.442C293.34 345.412 291.476 346.309 289.574 347.129L289.376 346.67C289.062 346.806 288.747 346.939 288.431 347.071L288.623 347.532C286.719 348.324 284.778 349.039 282.805 349.676L282.651 349.2C282.326 349.305 282 349.408 281.673 349.508L281.82 349.986C279.851 350.592 277.851 351.12 275.824 351.566L275.716 351.078C275.382 351.151 275.048 351.223 274.713 351.292L274.814 351.782C272.799 352.197 270.758 352.532 268.695 352.784L268.634 352.288C268.464 352.309 268.294 352.329 268.124 352.349L267.605 352.409L267.662 352.905L261.433 353.625L261.376 353.128L260.337 353.248L260.395 353.745L254.166 354.464L254.108 353.967L253.07 354.087L253.127 354.584L246.898 355.303L246.841 354.806L245.803 354.926L245.86 355.423L239.631 356.142L239.573 355.646L238.535 355.765L238.593 356.262L232.363 356.981L232.306 356.485L231.268 356.605L231.325 357.101L225.096 357.821L225.039 357.324L224.001 357.444L224.058 357.94L217.829 358.66L217.771 358.163L216.733 358.283L216.791 358.78L210.561 359.499L210.504 359.002L209.466 359.122L209.523 359.619L203.294 360.338L203.237 359.841L202.199 359.961L202.256 360.458L196.027 361.177L195.969 360.681L194.931 360.801L194.989 361.297L188.759 362.017L188.702 361.52L188.183 361.58C188.013 361.599 187.842 361.619 187.672 361.637L187.726 362.134C185.66 362.358 183.596 362.497 181.54 362.552L181.527 362.052C181.184 362.061 180.842 362.068 180.501 362.073L180.507 362.573C178.432 362.6 176.364 362.542 174.309 362.401L174.343 361.902C174.002 361.879 173.661 361.853 173.32 361.825L173.279 362.323C171.213 362.153 169.16 361.898 167.126 361.562L167.207 361.069C166.87 361.013 166.532 360.955 166.196 360.894L166.107 361.386C164.069 361.021 162.05 360.572 160.055 360.043L160.183 359.56C159.852 359.472 159.522 359.382 159.192 359.29L159.057 359.772C157.065 359.214 155.097 358.576 153.16 357.86L153.333 357.391C153.012 357.272 152.692 357.151 152.373 357.028L152.193 357.494C150.264 356.751 148.366 355.929 146.504 355.031L146.721 354.581C146.413 354.432 146.105 354.281 145.799 354.128L145.576 354.576C143.728 353.653 141.916 352.655 140.146 351.583L140.405 351.155C140.112 350.978 139.821 350.799 139.53 350.617L139.266 351.042C137.515 349.949 135.806 348.783 134.145 347.546L134.443 347.145C134.169 346.941 133.896 346.735 133.624 346.527L133.32 346.924C131.683 345.67 130.093 344.347 128.555 342.957L128.89 342.586C128.636 342.357 128.384 342.126 128.134 341.893L127.793 342.259C126.284 340.857 124.827 339.389 123.427 337.856L123.796 337.519C123.566 337.267 123.337 337.013 123.109 336.757L122.736 337.089C121.369 335.552 120.058 333.952 118.808 332.292L119.207 331.991C119.104 331.854 119.002 331.717 118.899 331.579L118.588 331.16L118.186 331.458L114.449 326.423L114.85 326.125L114.227 325.286L113.826 325.584L110.088 320.549L110.49 320.251L109.867 319.411L109.466 319.709L105.728 314.675L106.13 314.377L105.507 313.537L105.105 313.835L101.368 308.8L101.769 308.502L101.146 307.663L100.745 307.961L97.0072 302.926L97.4087 302.628L96.7858 301.789L96.3843 302.087L92.6468 297.052L93.0483 296.754L92.4254 295.915L92.0239 296.213L88.2864 291.178L88.6879 290.88L88.0649 290.041L87.6635 290.339L83.926 285.304L84.3274 285.006L83.7045 284.167L83.303 284.465L79.5655 279.43L79.967 279.132L79.3441 278.293L78.9426 278.591L75.2051 273.556L75.6066 273.258L74.9837 272.419L74.5822 272.717Z" stroke="#2966FF" stroke-dasharray="1 6" shape-rendering="crispEdges"/>
</g>
<g filter="url(#filter5_di_120_1331)">
<path d="M128.812 328.766L123.059 326.276L123.258 325.817L122.779 325.609C122.621 325.541 122.464 325.472 122.307 325.403L122.106 325.861C120.204 325.022 118.348 324.11 116.539 323.13L116.778 322.69C116.477 322.527 116.177 322.362 115.879 322.195L115.635 322.631C113.824 321.617 112.062 320.533 110.353 319.383L110.632 318.969C110.348 318.777 110.066 318.585 109.785 318.39L109.5 318.801C107.795 317.62 106.145 316.374 104.551 315.065L104.869 314.679C104.604 314.462 104.341 314.243 104.08 314.022L103.757 314.404C102.175 313.068 100.65 311.67 99.187 310.214L99.5397 309.86C99.297 309.619 99.056 309.376 98.8167 309.131L98.4593 309.481C97.0122 308.002 95.6274 306.465 94.3079 304.876L94.6926 304.556C94.474 304.293 94.2571 304.028 94.0421 303.762L93.6531 304.076C92.3542 302.468 91.1214 300.807 89.9578 299.098L90.3711 298.817C90.1784 298.534 89.9877 298.25 89.7989 297.964L89.3819 298.24C88.2426 296.517 87.1729 294.746 86.1759 292.933L86.6141 292.692C86.4492 292.392 86.2864 292.091 86.1256 291.789L85.6842 292.024C84.7146 290.202 83.8178 288.338 82.997 286.437L83.4561 286.239C83.3205 285.925 83.1871 285.61 83.0557 285.293L82.594 285.485C81.8028 283.581 81.0872 281.641 80.4505 279.667L80.9264 279.514C80.8214 279.188 80.7186 278.862 80.6179 278.535L80.14 278.682C79.5343 276.714 79.0066 274.714 78.5601 272.686L79.0484 272.579C78.9749 272.245 78.9036 271.91 78.8345 271.575L78.3448 271.676C77.9297 269.661 77.5944 267.621 77.342 265.558L77.8383 265.497C77.8175 265.327 77.7973 265.157 77.7776 264.986L77.7177 264.467L77.221 264.525L76.5019 258.298L76.9986 258.24L76.8787 257.202L76.382 257.26L75.663 251.032L76.1597 250.975L76.0398 249.937L75.5431 249.995L74.8241 243.767L75.3208 243.71L75.2009 242.672L74.7042 242.73L73.9852 236.502L74.4819 236.445L74.362 235.407L73.8653 235.465L73.1462 229.237L73.6429 229.18L73.5231 228.142L73.0264 228.2L72.3073 221.972L72.804 221.915L72.6842 220.877L72.1875 220.935L71.4684 214.707L71.9651 214.65L71.8453 213.612L71.3486 213.67L70.6295 207.442L71.1262 207.385L71.0064 206.347L70.5097 206.405L69.7906 200.177L70.2873 200.12L70.1675 199.082L69.6708 199.14L68.9517 192.912L69.4484 192.855L69.3885 192.336C69.3688 192.166 69.3497 191.995 69.3312 191.825L68.8341 191.879C68.6097 189.813 68.471 187.749 68.4161 185.693L68.9159 185.68C68.9068 185.337 68.9 184.995 68.8955 184.654L68.3955 184.66C68.3683 182.585 68.4262 180.517 68.5674 178.462L69.0662 178.496C69.0897 178.155 69.1154 177.814 69.1435 177.473L68.6452 177.432C68.8154 175.366 69.0698 173.313 69.4063 171.279L69.8996 171.36C69.9554 171.023 70.0136 170.685 70.074 170.349L69.5818 170.261C69.9476 168.222 70.396 166.203 70.9249 164.208L71.4082 164.336C71.4959 164.005 71.5858 163.675 71.678 163.345L71.1965 163.211C71.7539 161.218 72.392 159.25 73.1087 157.313L73.5776 157.486C73.6964 157.165 73.8173 156.845 73.9404 156.526L73.4738 156.346C74.2174 154.417 75.0392 152.519 75.9373 150.657L76.3877 150.874C76.5364 150.566 76.6872 150.258 76.84 149.952L76.3927 149.729C77.3152 147.881 78.3135 146.069 79.3853 144.299L79.813 144.558C79.9903 144.265 80.1695 143.974 80.3508 143.684L79.9267 143.419C81.0196 141.668 82.1854 139.96 83.4219 138.298L83.8231 138.596C84.0272 138.322 84.2334 138.049 84.4414 137.777L84.0444 137.473C85.2978 135.836 86.6207 134.246 88.0113 132.708L88.3822 133.043C88.6114 132.79 88.8425 132.537 89.0755 132.287L88.7092 131.946C90.1112 130.437 91.5794 128.98 93.1118 127.58L93.4491 127.949C93.7013 127.719 93.9554 127.49 94.2111 127.262L93.8789 126.889C95.4161 125.522 97.0159 124.211 98.6762 122.961L98.977 123.36C99.1139 123.257 99.2512 123.155 99.3889 123.052L99.8084 122.741L99.5104 122.34L104.544 118.603L104.842 119.005L105.681 118.382L105.383 117.981L110.416 114.244L110.714 114.646L111.553 114.023L111.255 113.622L116.288 109.885L116.586 110.287L117.425 109.664L117.127 109.263L122.16 105.526L122.458 105.928L123.297 105.305L122.999 104.903L128.033 101.167L128.331 101.569L129.17 100.946L128.872 100.544L133.905 96.8082L134.203 97.2097L135.042 96.5869L134.744 96.1854L139.777 92.4492L140.075 92.8506L140.914 92.2279L140.616 91.8264L145.649 88.0901L145.947 88.4916L146.786 87.8689L146.488 87.4674L151.522 83.7311L151.82 84.1326L152.658 83.5098L152.36 83.1084L157.394 79.3721L157.692 79.7735L158.111 79.4622C158.249 79.3599 158.387 79.2582 158.525 79.157L158.23 78.7535C159.907 77.5261 161.625 76.3743 163.378 75.2985L163.64 75.7247C163.931 75.5457 164.224 75.3688 164.518 75.1941L164.262 74.7644C166.046 73.7029 167.866 72.7194 169.716 71.8142L169.936 72.2633C170.243 72.1129 170.551 71.9647 170.86 71.8186L170.647 71.3665C172.521 70.4808 174.426 69.6747 176.356 68.949L176.532 69.417C176.853 69.2965 177.174 69.1782 177.496 69.0622L177.326 68.5918C179.274 67.8893 181.247 67.268 183.239 66.7286L183.37 67.2112C183.7 67.1217 184.031 67.0345 184.363 66.9496L184.239 66.4652C186.243 65.9516 188.266 65.5205 190.302 65.1724L190.386 65.6653C190.724 65.6076 191.062 65.5522 191.4 65.4992L191.322 65.0052C193.365 64.6846 195.419 64.4473 197.481 64.294L197.518 64.7927C197.859 64.7673 198.201 64.7442 198.543 64.7235L198.512 64.2244C200.574 64.0992 202.642 64.058 204.711 64.1012L204.7 64.6011C205.043 64.6083 205.385 64.6178 205.727 64.6296L205.744 64.1299C207.807 64.2011 209.869 64.3564 211.926 64.5964L211.868 65.093C212.208 65.1327 212.548 65.1747 212.887 65.2189L212.952 64.7232C214.997 64.99 217.035 65.3407 219.062 65.7759L218.957 66.2647C219.292 66.3365 219.625 66.4105 219.959 66.487L220.071 65.9996C222.078 66.4593 224.074 67.0023 226.053 67.6292L225.902 68.1058C226.228 68.2091 226.553 68.3146 226.878 68.4223L227.036 67.9478C228.988 68.5956 230.923 69.3257 232.836 70.1386L232.64 70.5987C232.798 70.6658 232.955 70.7334 233.113 70.8015L233.592 71.0091L233.791 70.5503L239.543 73.0411L239.345 73.4999L240.303 73.9151L240.502 73.4563L246.254 75.9471L246.056 76.4059L247.015 76.8211L247.213 76.3623L252.966 78.8531L252.767 79.3119L253.726 79.7271L253.924 79.2682L259.677 81.7591L259.478 82.2179L260.437 82.633L260.635 82.1742L266.388 84.6651L266.189 85.1239L267.148 85.539L267.347 85.0802L273.099 87.5711L272.9 88.0299L273.859 88.445L274.058 87.9862L279.81 90.4771L279.612 90.9359L280.57 91.351L280.769 90.8922L286.521 93.383L286.323 93.8419L287.281 94.257L287.48 93.7982L293.232 96.289L293.034 96.7478L293.993 97.163L294.191 96.7042L299.944 99.195L299.745 99.6538L300.224 99.8614C300.302 99.8951 300.38 99.9289 300.457 99.9628C300.537 99.9976 300.616 100.032 300.696 100.067L300.897 99.6099C302.799 100.449 304.655 101.36 306.464 102.341L306.225 102.78C306.526 102.944 306.826 103.109 307.124 103.276L307.368 102.839C309.179 103.854 310.941 104.938 312.65 106.087L312.371 106.502C312.655 106.693 312.937 106.886 313.218 107.081L313.503 106.67C315.208 107.85 316.858 109.097 318.452 110.405L318.134 110.792C318.399 111.009 318.662 111.228 318.923 111.449L319.246 111.067C320.828 112.403 322.353 113.801 323.816 115.256L323.463 115.611C323.706 115.852 323.947 116.095 324.186 116.34L324.544 115.99C325.991 117.469 327.376 119.005 328.695 120.595L328.31 120.914C328.529 121.178 328.746 121.442 328.961 121.709L329.35 121.394C330.649 123.003 331.882 124.664 333.045 126.373L332.632 126.654C332.825 126.937 333.015 127.221 333.204 127.507L333.621 127.231C334.76 128.954 335.83 130.724 336.827 132.537L336.389 132.778C336.554 133.078 336.717 133.379 336.877 133.681L337.319 133.446C338.288 135.268 339.185 137.132 340.006 139.034L339.547 139.232C339.682 139.546 339.816 139.861 339.947 140.177L340.409 139.985C341.2 141.889 341.916 143.83 342.552 145.803L342.077 145.957C342.182 146.282 342.284 146.608 342.385 146.936L342.863 146.789C343.469 148.757 343.996 150.757 344.443 152.784L343.955 152.892C344.028 153.226 344.099 153.56 344.169 153.895L344.658 153.794C345.073 155.809 345.409 157.85 345.661 159.913L345.165 159.974C345.186 160.144 345.206 160.314 345.225 160.484L345.285 161.003L345.782 160.946L346.501 167.173L346.004 167.23L346.124 168.268L346.621 168.211L347.34 174.438L346.843 174.496L346.963 175.533L347.46 175.476L348.179 181.703L347.682 181.761L347.802 182.798L348.299 182.741L349.018 188.968L348.521 189.026L348.641 190.063L349.138 190.006L349.857 196.233L349.36 196.291L349.48 197.328L349.977 197.271L350.696 203.498L350.199 203.556L350.319 204.593L350.816 204.536L351.535 210.763L351.038 210.821L351.158 211.858L351.654 211.801L352.374 218.028L351.877 218.086L351.997 219.123L352.493 219.066L353.212 225.293L352.716 225.351L352.836 226.388L353.332 226.331L354.051 232.558L353.555 232.616L353.615 233.135C353.634 233.305 353.653 233.475 353.672 233.646L354.169 233.592C354.393 235.658 354.532 237.721 354.587 239.778L354.087 239.791C354.096 240.133 354.103 240.475 354.108 240.817L354.608 240.81C354.635 242.886 354.577 244.954 354.436 247.008L353.937 246.974C353.913 247.316 353.888 247.657 353.86 247.997L354.358 248.038C354.188 250.105 353.933 252.158 353.597 254.192L353.103 254.11C353.048 254.448 352.989 254.785 352.929 255.122L353.421 255.21C353.055 257.249 352.607 259.268 352.078 261.263L351.595 261.135C351.507 261.466 351.417 261.796 351.325 262.125L351.807 262.26C351.249 264.253 350.611 266.22 349.894 268.158L349.425 267.984C349.307 268.305 349.186 268.625 349.063 268.945L349.529 269.125C348.786 271.054 347.964 272.952 347.066 274.814L346.615 274.597C346.467 274.905 346.316 275.212 346.163 275.519L346.61 275.742C345.688 277.59 344.69 279.402 343.618 281.172L343.19 280.913C343.013 281.205 342.833 281.497 342.652 281.787L343.076 282.052C341.983 283.803 340.818 285.511 339.581 287.173L339.18 286.874C338.976 287.149 338.77 287.422 338.562 287.694L338.959 287.997C337.705 289.635 336.382 291.225 334.992 292.763L334.621 292.428C334.392 292.681 334.16 292.933 333.928 293.184L334.294 293.524C332.892 295.033 331.424 296.49 329.891 297.89L329.554 297.521C329.302 297.752 329.048 297.981 328.792 298.208L329.124 298.582C327.587 299.949 325.987 301.26 324.327 302.51L324.026 302.11C323.889 302.213 323.752 302.316 323.614 302.418L323.195 302.73L323.493 303.131L318.459 306.867L318.161 306.466L317.322 307.089L317.62 307.49L312.587 311.226L312.289 310.825L311.45 311.448L311.748 311.849L306.715 315.585L306.417 315.184L305.578 315.807L305.876 316.208L300.843 319.944L300.545 319.543L299.706 320.166L300.004 320.567L294.97 324.303L294.672 323.902L293.833 324.525L294.132 324.926L289.098 328.662L288.8 328.261L287.961 328.884L288.259 329.285L283.226 333.022L282.928 332.62L282.089 333.243L282.387 333.644L277.354 337.381L277.056 336.979L276.217 337.602L276.515 338.003L271.481 341.74L271.183 341.338L270.345 341.961L270.643 342.362L265.609 346.099L265.311 345.697L264.892 346.008C264.754 346.111 264.616 346.212 264.478 346.314L264.773 346.717C263.096 347.945 261.378 349.096 259.625 350.172L259.363 349.746C259.072 349.925 258.779 350.102 258.485 350.277L258.741 350.706C256.957 351.768 255.137 352.751 253.287 353.656L253.067 353.207C252.76 353.358 252.452 353.506 252.143 353.652L252.356 354.104C250.482 354.99 248.577 355.796 246.647 356.522L246.471 356.054C246.15 356.174 245.829 356.292 245.507 356.408L245.677 356.879C243.729 357.581 241.756 358.203 239.764 358.742L239.633 358.259C239.303 358.349 238.972 358.436 238.64 358.521L238.764 359.005C236.76 359.519 234.737 359.95 232.701 360.298L232.617 359.805C232.279 359.863 231.941 359.918 231.603 359.972L231.681 360.465C229.638 360.786 227.584 361.023 225.522 361.177L225.485 360.678C225.144 360.703 224.802 360.726 224.46 360.747L224.491 361.246C222.429 361.371 220.361 361.413 218.292 361.369L218.303 360.87C217.96 360.862 217.618 360.853 217.276 360.841L217.259 361.341C215.196 361.27 213.134 361.114 211.077 360.874L211.135 360.378C210.795 360.338 210.455 360.296 210.116 360.252L210.051 360.748C208.007 360.481 205.968 360.13 203.941 359.695L204.046 359.206C203.711 359.134 203.378 359.06 203.044 358.984L202.932 359.471C200.925 359.011 198.929 358.468 196.95 357.841L197.101 357.365C196.775 357.262 196.45 357.156 196.125 357.048L195.967 357.523C194.015 356.875 192.08 356.145 190.167 355.332L190.363 354.872C190.205 354.805 190.048 354.737 189.89 354.669L189.411 354.462L189.212 354.92L183.46 352.43L183.658 351.971L182.7 351.556L182.501 352.014L176.749 349.524L176.947 349.065L175.988 348.65L175.79 349.108L170.037 346.618L170.236 346.159L169.277 345.744L169.079 346.202L163.326 343.712L163.525 343.253L162.566 342.838L162.368 343.296L156.615 340.806L156.814 340.347L155.855 339.932L155.656 340.39L149.904 337.9L150.103 337.441L149.144 337.026L148.945 337.484L143.193 334.994L143.392 334.535L142.433 334.12L142.234 334.578L136.482 332.088L136.68 331.629L135.722 331.214L135.523 331.672L129.771 329.182L129.969 328.723L129.01 328.308L128.812 328.766Z" stroke="#2966FF" stroke-dasharray="1 6" shape-rendering="crispEdges"/>
</g>
<g filter="url(#filter6_di_120_1331)">
<path d="M213.034 355.207L206.919 356.583L206.809 356.095L206.299 356.21C206.132 356.247 205.964 356.284 205.797 356.321L205.903 356.809C203.873 357.252 201.836 357.609 199.797 357.882L199.73 357.386C199.391 357.431 199.052 357.475 198.713 357.515L198.772 358.012C196.711 358.259 194.649 358.421 192.591 358.499L192.572 357.999C192.23 358.012 191.888 358.023 191.546 358.031L191.558 358.531C189.486 358.581 187.417 358.546 185.359 358.427L185.388 357.928C185.046 357.908 184.705 357.886 184.363 357.862L184.328 358.36C182.262 358.213 180.206 357.982 178.167 357.667L178.243 357.173C177.904 357.121 177.567 357.067 177.229 357.01L177.146 357.503C175.106 357.16 173.082 356.735 171.079 356.228L171.202 355.743C170.87 355.659 170.539 355.573 170.208 355.484L170.079 355.967C168.082 355.433 166.107 354.817 164.16 354.121L164.328 353.651C164.006 353.535 163.685 353.418 163.364 353.299L163.189 353.767C161.254 353.046 159.346 352.246 157.473 351.368L157.685 350.915C157.375 350.77 157.066 350.622 156.758 350.473L156.54 350.923C154.683 350.022 152.86 349.044 151.077 347.991L151.331 347.56C151.037 347.386 150.743 347.21 150.451 347.032L150.191 347.459C148.43 346.387 146.708 345.24 145.031 344.021L145.325 343.616C145.049 343.415 144.774 343.212 144.5 343.007L144.2 343.408C142.551 342.174 140.946 340.868 139.391 339.493L139.722 339.119C139.466 338.892 139.212 338.664 138.958 338.434L138.622 338.804C137.1 337.42 135.627 335.969 134.208 334.451L134.573 334.109C134.456 333.984 134.339 333.858 134.223 333.732L133.869 333.348L133.501 333.687L129.252 329.079L129.619 328.74L128.911 327.972L128.543 328.311L124.294 323.702L124.662 323.363L123.953 322.595L123.586 322.934L119.336 318.326L119.704 317.987L118.996 317.219L118.628 317.558L114.379 312.949L114.746 312.61L114.038 311.842L113.67 312.181L109.421 307.573L109.789 307.234L109.08 306.466L108.713 306.805L104.463 302.197L104.831 301.858L104.123 301.09L103.755 301.429L99.5058 296.82L99.8733 296.481L99.1651 295.713L98.7975 296.052L94.5481 291.444L94.9157 291.105L94.2074 290.337L93.8399 290.676L89.5904 286.067L89.958 285.728L89.2498 284.96L88.8822 285.299L84.6328 280.691L85.0004 280.352L84.6462 279.968C84.53 279.842 84.4142 279.715 84.2988 279.589L83.929 279.925C82.5305 278.388 81.2028 276.802 79.9471 275.173L80.3431 274.867C80.1341 274.596 79.9272 274.324 79.7223 274.051L79.3221 274.35C78.0774 272.689 76.9062 270.984 75.8098 269.241L76.233 268.974C76.0509 268.685 75.8708 268.394 75.6927 268.102L75.2659 268.363C74.1861 266.592 73.1824 264.784 72.2559 262.942L72.7026 262.717C72.5488 262.411 72.3972 262.105 72.2476 261.797L71.7979 262.016C70.8925 260.153 70.0654 258.257 69.3176 256.333L69.7836 256.152C69.6596 255.833 69.5377 255.513 69.4181 255.193L68.9497 255.368C68.2262 253.429 67.5828 251.463 67.0206 249.475L67.5017 249.339C67.4086 249.01 67.3176 248.68 67.229 248.349L66.7461 248.479C66.2105 246.482 65.7565 244.464 65.3852 242.43L65.8771 242.341C65.8156 242.004 65.7564 241.667 65.6996 241.329L65.2065 241.412C64.8632 239.375 64.6027 237.324 64.4262 235.262L64.9244 235.219C64.8952 234.878 64.8683 234.537 64.8437 234.196L64.345 234.232C64.1969 232.173 64.1324 230.106 64.1527 228.035L64.6527 228.039C64.6561 227.697 64.6618 227.355 64.6698 227.013L64.1699 227.001C64.2182 224.94 64.3506 222.876 64.5682 220.814L65.0654 220.866C65.1013 220.526 65.1395 220.186 65.18 219.847L64.6836 219.787C64.9276 217.742 65.2557 215.7 65.6691 213.666L66.159 213.765C66.2271 213.43 66.2975 213.096 66.3702 212.761L65.8816 212.655C66.3185 210.645 66.8391 208.643 67.4444 206.655L67.9227 206.801C67.9726 206.637 68.0231 206.473 68.0742 206.309L68.2297 205.81L67.7524 205.662L69.6186 199.677L70.0959 199.826L70.407 198.829L69.9296 198.68L71.7959 192.696L72.2732 192.845L72.5842 191.847L72.1069 191.698L73.9732 185.714L74.4505 185.863L74.7615 184.865L74.2842 184.717L76.1505 178.732L76.6278 178.881L76.9388 177.884L76.4615 177.735L78.3277 171.751L78.8051 171.9L79.1161 170.902L78.6388 170.753L80.505 164.769L80.9824 164.918L81.2934 163.92L80.8161 163.772L82.6823 157.787L83.1596 157.936L83.4707 156.939L82.9933 156.79L84.8596 150.806L85.3369 150.955L85.6479 149.957L85.1706 149.808L87.0369 143.824L87.5142 143.973L87.8252 142.975L87.3479 142.827L89.2142 136.842L89.6915 136.991L89.847 136.493C89.8981 136.329 89.9497 136.165 90.0018 136.002L89.5255 135.85C90.1577 133.87 90.8671 131.927 91.6503 130.025L92.1126 130.216C92.2429 129.899 92.3753 129.584 92.5096 129.27L92.0499 129.073C92.8662 127.164 93.7571 125.298 94.7189 123.476L95.161 123.71C95.3208 123.407 95.4826 123.106 95.6463 122.806L95.2074 122.566C96.2005 120.746 97.265 118.973 98.397 117.249L98.8149 117.524C99.0028 117.238 99.1926 116.953 99.3842 116.67L98.9701 116.389C100.131 114.674 101.359 113.01 102.651 111.4L103.041 111.713C103.255 111.446 103.471 111.181 103.689 110.917L103.303 110.599C104.62 109.003 106.001 107.463 107.441 105.982L107.8 106.331C108.039 106.085 108.279 105.842 108.521 105.599L108.167 105.246C109.629 103.784 111.149 102.382 112.725 101.043L113.049 101.424C113.31 101.203 113.572 100.983 113.836 100.765L113.517 100.379C115.11 99.0637 116.756 97.8121 118.454 96.6284L118.74 97.0385C119.02 96.8428 119.302 96.6489 119.586 96.4569L119.305 96.0429C121.014 94.8854 122.772 93.7959 124.576 92.7779L124.822 93.2134C125.12 93.0453 125.419 92.8791 125.719 92.715L125.479 92.2762C127.289 91.2874 129.142 90.3699 131.037 89.5273L131.24 89.9842C131.552 89.8453 131.866 89.7084 132.181 89.5736L131.984 89.1141C133.877 88.3028 135.809 87.5658 137.778 86.9066L137.937 87.3808C138.261 87.2723 138.586 87.1659 138.912 87.0616L138.759 86.5854C140.719 85.9587 142.712 85.4088 144.737 84.9388L144.85 85.4259C145.017 85.3871 145.184 85.349 145.351 85.3113L145.861 85.1966L145.751 84.7088L151.867 83.3329L151.977 83.8207L152.996 83.5914L152.886 83.1036L159.002 81.7276L159.112 82.2154L160.131 81.9861L160.021 81.4983L166.137 80.1224L166.247 80.6102L167.266 80.3809L167.156 79.8931L173.272 78.5171L173.381 79.005L174.401 78.7756L174.291 78.2878L180.407 76.9119L180.516 77.3997L181.536 77.1704L181.426 76.6826L187.542 75.3066L187.651 75.7945L188.671 75.5651L188.561 75.0773L194.677 73.7014L194.786 74.1892L195.806 73.9599L195.696 73.4721L201.811 72.0962L201.921 72.584L202.941 72.3546L202.831 71.8668L208.946 70.4909L209.056 70.9787L210.075 70.7494L209.966 70.2616L216.081 68.8856L216.191 69.3734L216.701 69.2588C216.783 69.2402 216.866 69.2217 216.949 69.2034C217.034 69.1846 217.118 69.166 217.203 69.1476L217.097 68.6591C219.127 68.2167 221.164 67.8597 223.203 67.5868L223.269 68.0824C223.609 68.037 223.948 67.9939 224.287 67.9532L224.228 67.4568C226.289 67.2094 228.351 67.0476 230.409 66.9698L230.428 67.4695C230.77 67.4566 231.112 67.446 231.454 67.4377L231.442 66.9379C233.514 66.8878 235.583 66.9229 237.641 67.0416L237.612 67.5408C237.954 67.5604 238.295 67.5825 238.637 67.6068L238.672 67.1081C240.738 67.2554 242.794 67.4869 244.833 67.8011L244.757 68.2953C245.095 68.3474 245.433 68.4018 245.771 68.4585L245.854 67.9654C247.894 68.3082 249.918 68.7338 251.921 69.2408L251.798 69.7255C252.13 69.8095 252.461 69.8958 252.792 69.9843L252.921 69.5013C254.918 70.0358 256.893 70.6516 258.84 71.347L258.672 71.8179C258.994 71.933 259.315 72.0503 259.636 72.1698L259.811 71.7013C261.746 72.4225 263.654 73.2228 265.527 74.1008L265.315 74.5536C265.625 74.6987 265.934 74.846 266.242 74.9955L266.46 74.5456C268.317 75.4466 270.14 76.4245 271.923 77.4776L271.669 77.9082C271.963 78.0821 272.257 78.2581 272.549 78.4361L272.809 78.0091C274.57 79.0816 276.292 80.2283 277.969 81.4478L277.675 81.8521C277.951 82.0532 278.226 82.2562 278.5 82.4612L278.8 82.0609C280.449 83.2948 282.054 84.6001 283.609 85.9752L283.278 86.3498C283.534 86.5762 283.788 86.8044 284.042 87.0346L284.378 86.6646C285.9 88.0481 287.373 89.4997 288.792 91.018L288.427 91.3594C288.544 91.4846 288.661 91.6103 288.777 91.7364L289.131 92.1204L289.499 91.7814L293.748 96.3898L293.381 96.7287L294.089 97.4968L294.457 97.1579L298.706 101.766L298.338 102.105L299.047 102.873L299.414 102.534L303.664 107.143L303.296 107.482L304.004 108.25L304.372 107.911L308.621 112.519L308.254 112.858L308.962 113.626L309.329 113.287L313.579 117.895L313.211 118.234L313.92 119.002L314.287 118.664L318.537 123.272L318.169 123.611L318.877 124.379L319.245 124.04L323.494 128.648L323.127 128.987L323.835 129.755L324.202 129.416L328.452 134.025L328.084 134.364L328.793 135.132L329.16 134.793L333.41 139.401L333.042 139.74L333.75 140.508L334.118 140.169L338.367 144.778L338 145.117L338.354 145.501C338.47 145.627 338.586 145.753 338.701 145.88L339.071 145.543C340.469 147.081 341.797 148.667 343.053 150.296L342.657 150.601C342.866 150.872 343.073 151.144 343.278 151.418L343.678 151.118C344.923 152.779 346.094 154.484 347.19 156.228L346.767 156.494C346.949 156.784 347.129 157.074 347.307 157.366L347.734 157.106C348.814 158.876 349.818 160.685 350.744 162.527L350.297 162.751C350.451 163.057 350.603 163.364 350.752 163.672L351.202 163.453C352.107 165.316 352.935 167.212 353.682 169.135L353.216 169.316C353.34 169.635 353.462 169.955 353.582 170.276L354.05 170.101C354.774 172.04 355.417 174.005 355.979 175.993L355.498 176.129C355.591 176.459 355.682 176.788 355.771 177.119L356.254 176.99C356.79 178.986 357.244 181.004 357.615 183.038L357.123 183.128C357.184 183.465 357.244 183.802 357.3 184.139L357.793 184.056C358.137 186.093 358.397 188.145 358.574 190.207L358.076 190.249C358.105 190.59 358.132 190.931 358.156 191.273L358.655 191.237C358.803 193.295 358.868 195.363 358.847 197.434L358.347 197.429C358.344 197.771 358.338 198.113 358.33 198.455L358.83 198.467C358.782 200.528 358.649 202.593 358.432 204.655L357.935 204.602C357.899 204.942 357.861 205.282 357.82 205.622L358.316 205.681C358.072 207.726 357.744 209.769 357.331 211.803L356.841 211.703C356.773 212.038 356.703 212.373 356.63 212.707L357.118 212.813C356.681 214.824 356.161 216.825 355.556 218.813L355.077 218.668C355.027 218.832 354.977 218.996 354.926 219.159L354.77 219.658L355.248 219.807L353.381 225.791L352.904 225.642L352.593 226.64L353.07 226.789L351.204 232.773L350.727 232.624L350.416 233.621L350.893 233.77L349.027 239.754L348.549 239.606L348.238 240.603L348.716 240.752L346.85 246.736L346.372 246.587L346.061 247.585L346.539 247.734L344.672 253.718L344.195 253.569L343.884 254.566L344.361 254.715L342.495 260.699L342.018 260.551L341.707 261.548L342.184 261.697L340.318 267.681L339.84 267.532L339.529 268.53L340.007 268.679L338.14 274.663L337.663 274.514L337.352 275.511L337.829 275.66L335.963 281.644L335.486 281.496L335.175 282.493L335.652 282.642L333.786 288.626L333.309 288.477L333.153 288.976C333.102 289.14 333.05 289.303 332.998 289.466L333.475 289.619C332.842 291.598 332.133 293.541 331.35 295.443L330.887 295.253C330.757 295.569 330.625 295.885 330.49 296.199L330.95 296.396C330.134 298.304 329.243 300.171 328.281 301.992L327.839 301.759C327.679 302.061 327.517 302.363 327.354 302.663L327.793 302.902C326.8 304.722 325.735 306.496 324.603 308.219L324.185 307.945C323.997 308.231 323.807 308.516 323.616 308.799L324.03 309.079C322.869 310.795 321.641 312.459 320.349 314.068L319.959 313.755C319.745 314.022 319.529 314.288 319.311 314.552L319.697 314.87C318.379 316.466 316.999 318.006 315.559 319.487L315.2 319.138C314.961 319.383 314.721 319.627 314.479 319.869L314.833 320.222C313.371 321.685 311.851 323.087 310.275 324.425L309.951 324.044C309.69 324.266 309.428 324.486 309.164 324.704L309.483 325.089C307.89 326.405 306.244 327.656 304.546 328.84L304.26 328.43C303.98 328.626 303.698 328.82 303.414 329.012L303.695 329.426C301.986 330.583 300.228 331.673 298.424 332.691L298.178 332.255C297.88 332.423 297.581 332.589 297.281 332.754L297.521 333.192C295.711 334.181 293.858 335.099 291.963 335.941L291.76 335.484C291.448 335.623 291.134 335.76 290.82 335.895L291.016 336.354C289.123 337.166 287.191 337.903 285.222 338.562L285.063 338.088C284.739 338.196 284.414 338.303 284.088 338.407L284.241 338.883C282.281 339.51 280.288 340.06 278.263 340.53L278.15 340.043C277.983 340.081 277.816 340.12 277.649 340.157L277.139 340.272L277.249 340.76L271.133 342.136L271.023 341.648L270.004 341.877L270.114 342.365L263.998 343.741L263.888 343.253L262.869 343.482L262.979 343.97L256.863 345.346L256.753 344.858L255.734 345.088L255.844 345.575L249.728 346.951L249.619 346.464L248.599 346.693L248.709 347.181L242.593 348.557L242.484 348.069L241.464 348.298L241.574 348.786L235.458 350.162L235.349 349.674L234.329 349.903L234.439 350.391L228.323 351.767L228.214 351.279L227.194 351.509L227.304 351.996L221.189 353.372L221.079 352.885L220.059 353.114L220.169 353.602L214.054 354.978L213.944 354.49L212.925 354.719L213.034 355.207Z" stroke="#2966FF" stroke-dasharray="1 6" shape-rendering="crispEdges"/>
</g>
<g opacity="0.4" filter="url(#filter7_di_120_1331)">
<path d="M97.6609 279.215L93.7982 274.772L94.1755 274.444L93.8536 274.074C93.7411 273.945 93.629 273.815 93.5175 273.685L93.1379 274.01C91.7849 272.433 90.5041 270.809 89.2964 269.144L89.7011 268.85C89.5002 268.573 89.3013 268.295 89.1044 268.015L88.6957 268.303C87.5 266.607 86.379 264.868 85.3339 263.093L85.7648 262.84C85.5911 262.545 85.4196 262.249 85.2502 261.952L84.8159 262.2C83.7882 260.399 82.8377 258.562 81.9654 256.694L82.4185 256.482C82.2736 256.172 82.131 255.861 81.9905 255.549L81.5346 255.754C80.684 253.866 79.9125 251.947 79.2211 250.002L79.6922 249.835C79.5775 249.512 79.4651 249.189 79.3549 248.865L78.8815 249.026C78.2149 247.067 77.6291 245.083 77.1252 243.08L77.6101 242.958C77.5266 242.626 77.4453 242.294 77.3664 241.961L76.8799 242.076C76.4028 240.065 76.0078 238.034 75.6961 235.99L76.1904 235.915C76.1388 235.577 76.0894 235.238 76.0424 234.899L75.5472 234.968C75.2635 232.922 75.063 230.863 74.9466 228.797L75.4459 228.769C75.4266 228.427 75.4097 228.085 75.3951 227.743L74.8956 227.765C74.8076 225.703 74.8035 223.634 74.8842 221.565L75.3838 221.584C75.3971 221.242 75.4128 220.901 75.4308 220.559L74.9315 220.533C75.0399 218.473 75.2324 216.414 75.5101 214.359L76.0056 214.426C76.0514 214.087 76.0995 213.749 76.15 213.41L75.6554 213.337C75.959 211.299 76.3466 209.268 76.8191 207.246L77.306 207.36C77.3838 207.027 77.4639 206.695 77.5463 206.363L77.061 206.242C77.5565 204.246 78.1352 202.26 78.7982 200.29L79.2721 200.45C79.3268 200.288 79.382 200.125 79.4379 199.963L79.5975 199.499L79.1247 199.336L81.0406 193.77L81.5134 193.933L81.8327 193.005L81.3599 192.842L83.2757 187.276L83.7485 187.439L84.0678 186.511L83.595 186.348L85.5109 180.782L85.9837 180.945L86.303 180.017L85.8302 179.854L87.746 174.288L88.2188 174.45L88.5381 173.523L88.0653 173.36L89.9812 167.794L90.454 167.956L90.7733 167.029L90.3005 166.866L92.2163 161.3L92.6891 161.462L93.0084 160.534L92.5356 160.372L94.4515 154.805L94.9243 154.968L95.2436 154.04L94.7708 153.878L96.6866 148.311L97.1594 148.474L97.4787 147.546L97.0059 147.384L98.9218 141.817L99.3946 141.98L99.5542 141.516C99.61 141.354 99.6664 141.192 99.7233 141.03L99.2516 140.864C99.9413 138.904 100.707 136.983 101.545 135.104L102.002 135.308C102.141 134.995 102.283 134.684 102.426 134.374L101.973 134.164C102.844 132.28 103.789 130.44 104.804 128.647L105.239 128.894C105.408 128.596 105.578 128.299 105.75 128.004L105.319 127.752C106.364 125.962 107.48 124.22 108.662 122.53L109.072 122.817C109.268 122.536 109.466 122.257 109.666 121.98L109.26 121.688C110.47 120.007 111.746 118.379 113.085 116.808L113.465 117.132C113.687 116.872 113.911 116.613 114.136 116.355L113.76 116.026C115.124 114.469 116.549 112.97 118.031 111.532L118.38 111.891C118.625 111.653 118.873 111.416 119.121 111.181L118.778 110.817C120.282 109.398 121.843 108.041 123.457 106.749L123.769 107.14C124.036 106.926 124.305 106.714 124.575 106.504L124.268 106.109C125.898 104.84 127.581 103.637 129.312 102.504L129.586 102.922C129.872 102.734 130.16 102.549 130.448 102.365L130.18 101.943C131.922 100.836 133.711 99.7983 135.544 98.8334L135.777 99.2758C136.079 99.1165 136.383 98.9591 136.688 98.8038L136.461 98.3582C138.299 97.4226 140.179 96.5596 142.097 95.7727L142.287 96.2353C142.603 96.1056 142.92 95.9779 143.239 95.8523L143.055 95.3872C144.971 94.6315 146.925 93.9513 148.911 93.3498L149.056 93.8284C149.383 93.7293 149.711 93.6325 150.04 93.5378L149.902 93.0573C151.879 92.4881 153.888 91.9966 155.925 91.5859L156.024 92.076C156.192 92.0422 156.36 92.0089 156.528 91.9761L157.01 91.8824L156.914 91.3916L162.693 90.2676L162.788 90.7584L163.751 90.5711L163.656 90.0803L169.435 88.9563L169.53 89.4471L170.493 89.2597L170.398 88.7689L176.176 87.6449L176.272 88.1357L177.235 87.9484L177.139 87.4576L182.918 86.3335L183.013 86.8243L183.976 86.637L183.881 86.1462L189.66 85.0222L189.755 85.513L190.718 85.3257L190.623 84.8349L196.401 83.7108L196.497 84.2016L197.46 84.0143L197.364 83.5235L203.143 82.3995L203.238 82.8903L204.201 82.7029L204.106 82.2121L209.884 81.0881L209.98 81.5789L210.943 81.3916L210.848 80.9008L216.626 79.7768L216.722 80.2675L217.203 80.1739C217.371 80.1411 217.54 80.109 217.708 80.0774L217.616 79.5859C219.659 79.203 221.706 78.9057 223.752 78.6924L223.803 79.1897C224.144 79.1542 224.484 79.121 224.825 79.0902L224.779 78.5923C226.847 78.4051 228.913 78.3035 230.972 78.2859L230.977 78.7859C231.319 78.7829 231.661 78.7823 232.003 78.7841L232.005 78.284C234.079 78.2945 236.145 78.3899 238.199 78.5686L238.156 79.0667C238.497 79.0964 238.837 79.1284 239.178 79.1626L239.228 78.6651C241.289 78.8727 243.336 79.1641 245.366 79.5377L245.276 80.0294C245.612 80.0914 245.949 80.1556 246.284 80.2221L246.381 79.7316C248.411 80.1338 250.422 80.6184 252.409 81.1835L252.272 81.6645C252.601 81.7581 252.93 81.854 253.258 81.9521L253.401 81.4731C255.382 82.0657 257.337 82.7389 259.263 83.4908L259.081 83.9565C259.4 84.081 259.718 84.2077 260.035 84.3365L260.223 83.8732C262.137 84.6506 264.02 85.5062 265.868 86.4385L265.642 86.8848C265.948 87.039 266.252 87.1953 266.556 87.3536L266.787 86.9104C268.617 87.8651 270.41 88.8958 272.162 90.0005L271.895 90.4234C272.031 90.5087 272.166 90.5944 272.3 90.6805C272.454 90.7787 272.607 90.8775 272.76 90.9768L273.032 90.5576C274.761 91.681 276.449 92.8775 278.089 94.1453L277.784 94.541C277.897 94.6283 278.009 94.716 278.122 94.804C278.279 94.9267 278.435 95.0499 278.591 95.1739L278.902 94.7825C280.515 96.064 282.081 97.4155 283.595 98.8354L283.253 99.2001C283.502 99.4339 283.75 99.6695 283.997 99.907L284.343 99.547C285.825 100.974 287.255 102.468 288.629 104.027L288.254 104.358C288.298 104.408 288.342 104.457 288.385 104.507C288.455 104.586 288.524 104.666 288.593 104.745L288.915 105.115L289.292 104.787L293.155 109.229L292.778 109.557L293.421 110.298L293.799 109.97L297.661 114.412L297.284 114.74L297.928 115.481L298.305 115.153L302.168 119.595L301.791 119.923L302.434 120.663L302.812 120.335L306.674 124.778L306.297 125.106L306.941 125.846L307.318 125.518L311.181 129.96L310.803 130.288L311.447 131.029L311.825 130.701L315.687 135.143L315.31 135.471L315.954 136.212L316.331 135.884L320.194 140.326L319.816 140.654L320.46 141.394L320.838 141.066L324.7 145.509L324.323 145.837L324.967 146.577L325.344 146.249L329.207 150.691L328.829 151.019L329.151 151.39C329.264 151.519 329.376 151.649 329.488 151.779L329.867 151.453C331.22 153.031 332.501 154.655 333.709 156.32L333.304 156.614C333.505 156.891 333.704 157.169 333.901 157.448L334.309 157.16C335.505 158.857 336.626 160.595 337.671 162.37L337.24 162.624C337.414 162.919 337.585 163.215 337.755 163.512L338.189 163.264C339.217 165.065 340.167 166.902 341.04 168.77L340.587 168.982C340.731 169.292 340.874 169.603 341.014 169.915L341.47 169.709C342.321 171.598 343.093 173.517 343.784 175.462L343.313 175.629C343.427 175.952 343.54 176.275 343.65 176.599L344.123 176.438C344.79 178.397 345.376 180.38 345.88 182.384L345.395 182.506C345.478 182.837 345.56 183.17 345.639 183.503L346.125 183.388C346.602 185.399 346.997 187.429 347.309 189.473L346.815 189.549C346.866 189.887 346.916 190.226 346.963 190.565L347.458 190.496C347.742 192.542 347.942 194.601 348.058 196.667L347.559 196.695C347.578 197.036 347.595 197.378 347.61 197.72L348.109 197.699C348.197 199.761 348.202 201.829 348.121 203.899L347.621 203.879C347.608 204.221 347.592 204.563 347.574 204.905L348.073 204.931C347.965 206.99 347.773 209.05 347.495 211.104L346.999 211.038C346.954 211.376 346.905 211.715 346.855 212.053L347.35 212.127C347.046 214.164 346.658 216.196 346.186 218.217L345.699 218.104C345.621 218.436 345.541 218.769 345.459 219.101L345.944 219.222C345.449 221.218 344.87 223.204 344.207 225.173L343.733 225.014C343.678 225.176 343.623 225.338 343.567 225.501L343.407 225.965L343.88 226.127L341.964 231.694L341.492 231.531L341.172 232.459L341.645 232.621L339.729 238.188L339.256 238.025L338.937 238.953L339.41 239.115L337.494 244.682L337.021 244.519L336.702 245.447L337.175 245.61L335.259 251.176L334.786 251.013L334.467 251.941L334.94 252.104L333.024 257.67L332.551 257.507L332.232 258.435L332.704 258.598L330.789 264.164L330.316 264.001L329.997 264.929L330.469 265.092L328.553 270.658L328.081 270.496L327.761 271.423L328.234 271.586L326.318 277.152L325.846 276.99L325.526 277.917L325.999 278.08L324.083 283.647L323.61 283.484L323.451 283.948C323.395 284.11 323.339 284.272 323.282 284.433L323.753 284.599C323.064 286.56 322.298 288.481 321.46 290.36L321.003 290.156C320.864 290.468 320.722 290.78 320.578 291.09L321.032 291.3C320.161 293.184 319.216 295.024 318.201 296.816L317.766 296.57C317.597 296.868 317.427 297.164 317.255 297.46L317.686 297.712C316.641 299.502 315.525 301.244 314.343 302.933L313.933 302.647C313.737 302.927 313.539 303.206 313.339 303.484L313.745 303.776C312.535 305.457 311.259 307.085 309.92 308.656L309.54 308.332C309.318 308.592 309.094 308.851 308.868 309.109L309.245 309.438C307.881 310.995 306.456 312.494 304.974 313.932L304.625 313.573C304.38 313.811 304.132 314.048 303.884 314.283L304.227 314.646C302.723 316.065 301.162 317.423 299.548 318.714L299.236 318.324C298.969 318.538 298.7 318.75 298.43 318.96L298.737 319.355C297.107 320.623 295.424 321.826 293.693 322.96L293.419 322.542C293.133 322.729 292.845 322.915 292.557 323.099L292.825 323.521C291.083 324.628 289.294 325.665 287.461 326.63L287.228 326.188C286.926 326.347 286.622 326.505 286.317 326.66L286.544 327.105C284.706 328.041 282.826 328.904 280.908 329.691L280.718 329.228C280.402 329.358 280.085 329.486 279.766 329.611L279.95 330.077C278.034 330.832 276.08 331.512 274.094 332.114L273.949 331.635C273.622 331.734 273.294 331.831 272.965 331.926L273.103 332.406C271.126 332.976 269.117 333.467 267.08 333.878L266.981 333.388C266.813 333.422 266.645 333.455 266.477 333.488L265.995 333.581L266.091 334.072L260.312 335.196L260.217 334.705L259.253 334.893L259.349 335.383L253.57 336.507L253.475 336.017L252.512 336.204L252.607 336.695L246.829 337.819L246.733 337.328L245.77 337.515L245.866 338.006L240.087 339.13L239.992 338.639L239.029 338.827L239.124 339.317L233.345 340.442L233.25 339.951L232.287 340.138L232.382 340.629L226.604 341.753L226.508 341.262L225.545 341.449L225.641 341.94L219.862 343.064L219.767 342.573L218.804 342.761L218.899 343.252L213.121 344.376L213.025 343.885L212.062 344.072L212.157 344.563L206.379 345.687L206.283 345.196L205.802 345.29C205.634 345.323 205.465 345.355 205.297 345.386L205.389 345.878C203.346 346.261 201.299 346.558 199.253 346.771L199.202 346.274C198.861 346.31 198.521 346.343 198.18 346.373L198.226 346.871C196.158 347.059 194.092 347.16 192.033 347.178L192.028 346.678C191.686 346.681 191.344 346.681 191.002 346.68L191 347.18C188.926 347.169 186.86 347.074 184.806 346.895L184.849 346.397C184.508 346.367 184.168 346.335 183.827 346.301L183.777 346.799C181.716 346.591 179.669 346.3 177.639 345.926L177.729 345.434C177.393 345.372 177.056 345.308 176.721 345.242L176.624 345.732C174.594 345.33 172.583 344.845 170.596 344.28L170.733 343.799C170.404 343.706 170.075 343.61 169.747 343.512L169.604 343.991C167.623 343.398 165.668 342.725 163.742 341.973L163.924 341.507C163.605 341.383 163.287 341.256 162.97 341.127L162.782 341.59C160.868 340.813 158.985 339.957 157.137 339.025L157.363 338.579C157.057 338.425 156.753 338.268 156.449 338.11L156.218 338.553C154.388 337.599 152.595 336.568 150.843 335.463L151.11 335.04C150.82 334.858 150.532 334.673 150.245 334.487L149.973 334.906C148.244 333.783 146.556 332.586 144.916 331.318L145.221 330.923C144.951 330.714 144.682 330.503 144.414 330.29L144.103 330.681C142.49 329.4 140.924 328.048 139.41 326.628L139.752 326.264C139.503 326.03 139.255 325.794 139.008 325.557L138.662 325.917C137.18 324.489 135.75 322.995 134.376 321.436L134.751 321.106C134.638 320.977 134.525 320.848 134.412 320.719L134.09 320.349L133.713 320.677L129.85 316.234L130.227 315.906L129.584 315.166L129.206 315.494L125.344 311.052L125.721 310.723L125.077 309.983L124.7 310.311L120.837 305.869L121.214 305.541L120.571 304.8L120.193 305.128L116.331 300.686L116.708 300.358L116.064 299.618L115.687 299.946L111.824 295.503L112.201 295.175L111.558 294.435L111.18 294.763L107.318 290.321L107.695 289.992L107.051 289.252L106.674 289.58L102.811 285.138L103.189 284.81L102.545 284.069L102.167 284.397L98.3047 279.955L98.682 279.627L98.0382 278.887L97.6609 279.215Z" stroke="#2966FF" stroke-dasharray="1 6" shape-rendering="crispEdges"/>
</g>
<g filter="url(#filter8_di_120_1331)">
<path d="M129.323 314.007L123.758 310.953L123.998 310.515L123.535 310.26C123.384 310.177 123.234 310.094 123.085 310.011L122.841 310.448C121.026 309.435 119.263 308.355 117.554 307.21L117.832 306.795C117.547 306.604 117.265 306.412 116.983 306.218L116.699 306.629C114.991 305.451 113.338 304.207 111.743 302.903L112.06 302.516C111.795 302.3 111.532 302.081 111.27 301.861L110.948 302.244C109.361 300.91 107.834 299.515 106.369 298.063L106.721 297.708C106.478 297.467 106.237 297.225 105.997 296.981L105.64 297.331C104.189 295.853 102.801 294.319 101.48 292.734L101.864 292.414C101.645 292.151 101.428 291.886 101.212 291.621L100.824 291.935C99.521 290.328 98.2854 288.669 97.1197 286.964L97.5325 286.682C97.3394 286.399 97.1482 286.115 96.9589 285.83L96.5423 286.107C95.399 284.384 94.3262 282.616 93.3269 280.806L93.7646 280.564C93.5992 280.265 93.4358 279.964 93.2744 279.662L92.8335 279.898C91.8597 278.076 90.9596 276.214 90.136 274.315L90.5947 274.116C90.4585 273.803 90.3244 273.488 90.1924 273.172L89.7311 273.365C88.9354 271.46 88.2162 269.521 87.5762 267.551L88.0518 267.397C87.9461 267.071 87.8426 266.745 87.7412 266.418L87.2637 266.566C86.6533 264.597 86.1217 262.598 85.6716 260.574L86.1597 260.465C86.0855 260.131 86.0135 259.797 85.9438 259.462L85.4543 259.564C85.0346 257.547 84.6956 255.507 84.4399 253.447L84.9361 253.385C84.894 253.046 84.8542 252.707 84.8167 252.366L84.3197 252.421C84.0941 250.376 83.9505 248.313 83.8914 246.236L84.3912 246.222C84.3863 246.05 84.382 245.879 84.3783 245.707L84.3669 245.179L83.867 245.189L83.7296 238.842L84.2295 238.832L84.2066 237.774L83.7067 237.785L83.5693 231.438L84.0692 231.427L84.0463 230.369L83.5464 230.38L83.409 224.033L83.9089 224.022L83.886 222.964L83.3861 222.975L83.2487 216.628L83.7486 216.617L83.7257 215.56L83.2258 215.57L83.0884 209.223L83.5883 209.213L83.5654 208.155L83.0655 208.166L82.9281 201.819L83.428 201.808L83.4051 200.75L82.9052 200.761L82.7678 194.414L83.2677 194.403L83.2448 193.345L82.7449 193.356L82.6075 187.009L83.1074 186.998L83.0959 186.469C83.0922 186.298 83.0891 186.127 83.0865 185.955L82.5866 185.963C82.5557 183.885 82.6099 181.817 82.7468 179.765L83.2457 179.798C83.2684 179.456 83.2935 179.115 83.3209 178.775L82.8225 178.735C82.9888 176.665 83.2392 174.612 83.5712 172.579L84.0647 172.66C84.1198 172.322 84.1773 171.985 84.2369 171.649L83.7446 171.561C84.1067 169.52 84.5512 167.499 85.0758 165.505L85.5594 165.633C85.6464 165.302 85.7357 164.971 85.8273 164.642L85.3455 164.508C85.8996 162.512 86.5342 160.544 87.2467 158.607L87.716 158.779C87.8341 158.458 87.9545 158.138 88.0769 157.818L87.6101 157.639C88.3508 155.707 89.1694 153.808 90.0635 151.945L90.5142 152.162C90.6624 151.853 90.8126 151.546 90.9649 151.239L90.5171 151.017C91.4372 149.165 92.4324 147.352 93.5001 145.582L93.9283 145.84C94.105 145.547 94.2838 145.255 94.4645 144.964L94.0399 144.7C95.1306 142.946 96.2934 141.235 97.5255 139.573L97.9272 139.871C98.1309 139.596 98.3366 139.322 98.5441 139.05L98.1465 138.747C99.3979 137.106 100.718 135.513 102.104 133.974L102.475 134.309C102.704 134.054 102.935 133.802 103.167 133.551L102.8 133.211C104.201 131.698 105.666 130.238 107.194 128.836L107.532 129.204C107.784 128.973 108.038 128.744 108.293 128.516L107.96 128.143C109.496 126.771 111.094 125.457 112.75 124.206L113.052 124.605C113.324 124.399 113.598 124.194 113.874 123.992L113.578 123.589C115.236 122.371 116.951 121.215 118.721 120.125L118.983 120.551C119.129 120.461 119.275 120.372 119.422 120.283L119.874 120.008L119.615 119.581L125.043 116.288L125.302 116.716L126.207 116.167L125.947 115.74L131.375 112.447L131.635 112.875L132.539 112.326L132.28 111.899L137.708 108.606L137.967 109.034L138.872 108.485L138.613 108.057L144.04 104.765L144.3 105.192L145.204 104.644L144.945 104.216L150.373 100.924L150.632 101.351L151.537 100.802L151.278 100.375L156.706 97.0825L156.965 97.51L157.87 96.9612L157.61 96.5337L163.038 93.2413L163.297 93.6688L164.202 93.12L163.943 92.6925L169.371 89.4001L169.63 89.8276L170.082 89.5532C170.229 89.4642 170.376 89.3758 170.523 89.2879L170.267 88.8587C172.051 87.7929 173.868 86.8061 175.714 85.8984L175.935 86.3471C176.242 86.1961 176.55 86.0473 176.859 85.9006L176.644 85.449C178.519 84.5584 180.423 83.7486 182.349 83.0198L182.526 83.4874C182.846 83.3663 183.167 83.2475 183.488 83.1309L183.318 82.6609C185.267 81.9536 187.238 81.3286 189.228 80.7858L189.359 81.2682C189.689 81.1781 190.02 81.0903 190.351 81.0047L190.226 80.5206C192.232 80.0027 194.254 79.5679 196.288 79.2165L196.373 79.7092C196.71 79.6509 197.048 79.5949 197.386 79.5412L197.307 79.0474C199.351 78.7228 201.405 78.482 203.465 78.3252L203.503 78.8238C203.844 78.7978 204.186 78.7741 204.527 78.7528L204.496 78.2538C206.559 78.1249 208.627 78.0801 210.694 78.1196L210.685 78.6195C211.027 78.6261 211.369 78.6349 211.711 78.6461L211.727 78.1464C213.792 78.2139 215.855 78.3655 217.911 78.6014L217.854 79.0981C218.194 79.1371 218.533 79.1784 218.873 79.2221L218.937 78.7262C220.984 78.9893 223.023 79.3361 225.049 79.7668L224.945 80.2558C225.279 80.327 225.613 80.4004 225.947 80.4761L226.058 79.9885C228.069 80.4446 230.066 80.9838 232.043 81.606L231.893 82.083C232.219 82.1855 232.545 82.2904 232.87 82.3976L233.027 81.9227C234.983 82.5675 236.919 83.2941 238.831 84.1027L238.636 84.5632C238.951 84.6963 239.265 84.8317 239.579 84.9693L239.78 84.5115C241.663 85.3384 243.522 86.2456 245.35 87.2332L245.113 87.6731C245.264 87.7546 245.414 87.8366 245.565 87.9191L246.028 88.1736L246.269 87.7353L251.834 90.7897L251.594 91.2281L252.521 91.7372L252.762 91.2988L258.327 94.3533L258.087 94.7916L259.014 95.3007L259.255 94.8624L264.82 97.9169L264.579 98.3552L265.507 98.8642L265.748 98.4259L271.313 101.48L271.072 101.919L272 102.428L272.24 101.989L277.806 105.044L277.565 105.482L278.493 105.991L278.733 105.553L284.299 108.607L284.058 109.046L284.986 109.555L285.226 109.117L290.791 112.171L290.551 112.609L291.478 113.118L291.719 112.68L297.284 115.735L297.044 116.173L297.507 116.427C297.658 116.51 297.808 116.593 297.958 116.676L298.201 116.24C300.016 117.252 301.78 118.333 303.489 119.478L303.21 119.893C303.495 120.083 303.778 120.276 304.059 120.47L304.343 120.058C306.052 121.237 307.704 122.48 309.299 123.784L308.982 124.171C309.247 124.388 309.511 124.606 309.772 124.826L310.094 124.443C311.681 125.778 313.208 127.173 314.673 128.624L314.321 128.979C314.564 129.22 314.805 129.463 315.045 129.707L315.402 129.356C316.853 130.834 318.241 132.368 319.562 133.954L319.178 134.274C319.397 134.537 319.614 134.801 319.83 135.067L320.218 134.752C321.521 136.36 322.757 138.018 323.922 139.724L323.51 140.006C323.703 140.288 323.894 140.572 324.083 140.857L324.5 140.581C325.643 142.303 326.716 144.072 327.715 145.882L327.278 146.123C327.443 146.423 327.606 146.724 327.768 147.026L328.209 146.79C329.182 148.612 330.083 150.474 330.906 152.372L330.447 152.571C330.584 152.885 330.718 153.2 330.85 153.516L331.311 153.323C332.107 155.227 332.826 157.167 333.466 159.136L332.99 159.291C333.096 159.616 333.2 159.942 333.301 160.269L333.778 160.121C334.389 162.091 334.92 164.09 335.371 166.114L334.882 166.222C334.957 166.556 335.029 166.89 335.098 167.225L335.588 167.124C336.008 169.14 336.347 171.18 336.602 173.241L336.106 173.302C336.148 173.641 336.188 173.981 336.225 174.321L336.722 174.266C336.948 176.311 337.092 178.374 337.151 180.452L336.651 180.466C336.656 180.637 336.66 180.809 336.664 180.98L336.675 181.509L337.175 181.498L337.313 187.845L336.813 187.856L336.836 188.914L337.335 188.903L337.473 195.25L336.973 195.261L336.996 196.318L337.496 196.308L337.633 202.655L337.133 202.665L337.156 203.723L337.656 203.712L337.793 210.059L337.294 210.07L337.316 211.128L337.816 211.117L337.954 217.464L337.454 217.475L337.477 218.533L337.977 218.522L338.114 224.869L337.614 224.88L337.637 225.937L338.137 225.927L338.274 232.274L337.774 232.284L337.797 233.342L338.297 233.331L338.435 239.678L337.935 239.689L337.946 240.218C337.95 240.39 337.953 240.561 337.956 240.732L338.456 240.725C338.486 242.803 338.432 244.87 338.295 246.923L337.796 246.89C337.774 247.231 337.749 247.572 337.721 247.913L338.22 247.953C338.053 250.022 337.803 252.075 337.471 254.108L336.977 254.027C336.922 254.365 336.865 254.702 336.805 255.039L337.298 255.126C336.935 257.168 336.491 259.188 335.966 261.182L335.483 261.055C335.396 261.386 335.306 261.716 335.215 262.046L335.697 262.18C335.143 264.175 334.508 266.144 333.795 268.081L333.326 267.908C333.208 268.229 333.088 268.55 332.965 268.869L333.432 269.048C332.691 270.98 331.873 272.88 330.979 274.742L330.528 274.526C330.38 274.834 330.23 275.142 330.077 275.448L330.525 275.671C329.605 277.522 328.61 279.335 327.542 281.106L327.114 280.848C326.937 281.141 326.758 281.432 326.578 281.723L327.002 281.987C325.912 283.741 324.749 285.452 323.517 287.114L323.115 286.817C322.911 287.092 322.706 287.365 322.498 287.637L322.896 287.941C321.644 289.582 320.324 291.174 318.938 292.713L318.567 292.379C318.338 292.633 318.107 292.886 317.875 293.137L318.242 293.477C316.841 294.99 315.376 296.45 313.848 297.852L313.51 297.483C313.258 297.714 313.005 297.944 312.749 298.172L313.082 298.545C311.546 299.916 309.948 301.23 308.292 302.482L307.991 302.083C307.718 302.289 307.444 302.493 307.168 302.696L307.464 303.099C305.806 304.316 304.091 305.472 302.321 306.562L302.059 306.136C301.913 306.226 301.767 306.316 301.62 306.405L301.168 306.679L301.427 307.107L295.999 310.399L295.74 309.971L294.835 310.52L295.095 310.948L289.667 314.24L289.407 313.813L288.503 314.361L288.762 314.789L283.334 318.081L283.075 317.654L282.17 318.203L282.43 318.63L277.002 321.923L276.742 321.495L275.838 322.044L276.097 322.471L270.669 325.764L270.41 325.336L269.505 325.885L269.764 326.313L264.337 329.605L264.077 329.178L263.173 329.726L263.432 330.154L258.004 333.446L257.745 333.019L256.84 333.567L257.099 333.995L251.671 337.287L251.412 336.86L250.96 337.134C250.813 337.223 250.666 337.312 250.519 337.4L250.776 337.829C248.991 338.895 247.174 339.881 245.328 340.789L245.107 340.34C244.8 340.491 244.492 340.64 244.183 340.787L244.398 341.238C242.523 342.129 240.62 342.939 238.693 343.668L238.516 343.2C238.196 343.321 237.875 343.44 237.554 343.557L237.725 344.027C235.775 344.734 233.804 345.359 231.815 345.902L231.683 345.419C231.353 345.509 231.022 345.597 230.691 345.683L230.816 346.167C228.81 346.685 226.788 347.12 224.755 347.471L224.669 346.978C224.332 347.037 223.994 347.093 223.657 347.146L223.735 347.64C221.691 347.965 219.637 348.205 217.577 348.362L217.539 347.864C217.198 347.89 216.857 347.913 216.515 347.935L216.546 348.434C214.483 348.563 212.415 348.607 210.348 348.568L210.357 348.068C210.015 348.061 209.673 348.053 209.331 348.041L209.315 348.541C207.25 348.474 205.187 348.322 203.132 348.086L203.189 347.589C202.849 347.55 202.509 347.509 202.169 347.465L202.106 347.961C200.059 347.698 198.02 347.351 195.994 346.921L196.098 346.432C195.763 346.361 195.429 346.287 195.095 346.211L194.984 346.699C192.974 346.243 190.977 345.704 188.999 345.081L189.149 344.605C188.823 344.502 188.497 344.397 188.172 344.29L188.016 344.765C186.059 344.12 184.123 343.393 182.211 342.585L182.406 342.124C182.091 341.991 181.777 341.856 181.463 341.718L181.262 342.176C179.379 341.349 177.52 340.442 175.692 339.454L175.929 339.014C175.778 338.933 175.628 338.851 175.478 338.768L175.014 338.514L174.773 338.952L169.208 335.898L169.448 335.459L168.521 334.95L168.28 335.389L162.715 332.334L162.956 331.896L162.028 331.387L161.787 331.825L156.222 328.771L156.463 328.332L155.535 327.823L155.295 328.262L149.729 325.207L149.97 324.769L149.042 324.26L148.802 324.698L143.236 321.644L143.477 321.205L142.549 320.696L142.309 321.134L136.744 318.08L136.984 317.642L136.057 317.133L135.816 317.571L130.251 314.516L130.491 314.078L129.564 313.569L129.323 314.007Z" stroke="#2966FF" stroke-dasharray="1 6" shape-rendering="crispEdges"/>
</g>
<defs>
<filter id="filter0_d_120_1331" x="54.7284" y="51.3007" width="313.542" height="322.872" filterUnits="userSpaceOnUse" color-interpolation-filters="sRGB">
<feFlood flood-opacity="0" result="BackgroundImageFix"/>
<feColorMatrix in="SourceAlpha" type="matrix" values="0 0 0 0 0 0 0 0 0 0 0 0 0 0 0 0 0 0 127 0" result="hardAlpha"/>
<feOffset/>
<feGaussianBlur stdDeviation="6.5"/>
<feComposite in2="hardAlpha" operator="out"/>
<feColorMatrix type="matrix" values="0 0 0 0 0.160784 0 0 0 0 0.4 0 0 0 0 1 0 0 0 0.55 0"/>
<feBlend mode="normal" in2="BackgroundImageFix" result="effect1_dropShadow_120_1331"/>
<feBlend mode="normal" in="SourceGraphic" in2="effect1_dropShadow_120_1331" result="shape"/>
</filter>
<filter id="filter1_d_120_1331" x="53.3914" y="51.9164" width="316.212" height="321.632" filterUnits="userSpaceOnUse" color-interpolation-filters="sRGB">
<feFlood flood-opacity="0" result="BackgroundImageFix"/>
<feColorMatrix in="SourceAlpha" type="matrix" values="0 0 0 0 0 0 0 0 0 0 0 0 0 0 0 0 0 0 127 0" result="hardAlpha"/>
<feOffset/>
<feGaussianBlur stdDeviation="6.5"/>
<feComposite in2="hardAlpha" operator="out"/>
<feColorMatrix type="matrix" values="0 0 0 0 0.160784 0 0 0 0 0.4 0 0 0 0 1 0 0 0 0.55 0"/>
<feBlend mode="normal" in2="BackgroundImageFix" result="effect1_dropShadow_120_1331"/>
<feBlend mode="normal" in="SourceGraphic" in2="effect1_dropShadow_120_1331" result="shape"/>
</filter>
<filter id="filter2_f_120_1331" x="48.7284" y="45.3007" width="325.542" height="334.872" filterUnits="userSpaceOnUse" color-interpolation-filters="sRGB">
<feFlood flood-opacity="0" result="BackgroundImageFix"/>
<feBlend mode="normal" in="SourceGraphic" in2="BackgroundImageFix" result="shape"/>
<feGaussianBlur stdDeviation="9.5" result="effect1_foregroundBlur_120_1331"/>
</filter>
<filter id="filter3_f_120_1331" x="61.3914" y="59.9164" width="300.212" height="305.632" filterUnits="userSpaceOnUse" color-interpolation-filters="sRGB">
<feFlood flood-opacity="0" result="BackgroundImageFix"/>
<feBlend mode="normal" in="SourceGraphic" in2="BackgroundImageFix" result="shape"/>
<feGaussianBlur stdDeviation="2.5" result="effect1_foregroundBlur_120_1331"/>
</filter>
<filter id="filter4_di_120_1331" x="42.5571" y="49.8846" width="337.883" height="325.695" filterUnits="userSpaceOnUse" color-interpolation-filters="sRGB">
<feFlood flood-opacity="0" result="BackgroundImageFix"/>
<feColorMatrix in="SourceAlpha" type="matrix" values="0 0 0 0 0 0 0 0 0 0 0 0 0 0 0 0 0 0 127 0" result="hardAlpha"/>
<feOffset/>
<feGaussianBlur stdDeviation="6.5"/>
<feComposite in2="hardAlpha" operator="out"/>
<feColorMatrix type="matrix" values="0 0 0 0 0.160784 0 0 0 0 0.4 0 0 0 0 1 0 0 0 1 0"/>
<feBlend mode="normal" in2="BackgroundImageFix" result="effect1_dropShadow_120_1331"/>
<feBlend mode="normal" in="SourceGraphic" in2="effect1_dropShadow_120_1331" result="shape"/>
<feColorMatrix in="SourceAlpha" type="matrix" values="0 0 0 0 0 0 0 0 0 0 0 0 0 0 0 0 0 0 127 0" result="hardAlpha"/>
<feOffset/>
<feGaussianBlur stdDeviation="6.5"/>
<feComposite in2="hardAlpha" operator="arithmetic" k2="-1" k3="1"/>
<feColorMatrix type="matrix" values="0 0 0 0 0.160784 0 0 0 0 0.4 0 0 0 0 1 0 0 0 1 0"/>
<feBlend mode="normal" in2="shape" result="effect2_innerShadow_120_1331"/>
</filter>
<filter id="filter5_di_120_1331" x="55.3889" y="51.0847" width="312.225" height="323.301" filterUnits="userSpaceOnUse" color-interpolation-filters="sRGB">
<feFlood flood-opacity="0" result="BackgroundImageFix"/>
<feColorMatrix in="SourceAlpha" type="matrix" values="0 0 0 0 0 0 0 0 0 0 0 0 0 0 0 0 0 0 127 0" result="hardAlpha"/>
<feOffset/>
<feGaussianBlur stdDeviation="6.5"/>
<feComposite in2="hardAlpha" operator="out"/>
<feColorMatrix type="matrix" values="0 0 0 0 0.160784 0 0 0 0 0.4 0 0 0 0 1 0 0 0 1 0"/>
<feBlend mode="normal" in2="BackgroundImageFix" result="effect1_dropShadow_120_1331"/>
<feBlend mode="normal" in="SourceGraphic" in2="effect1_dropShadow_120_1331" result="shape"/>
<feColorMatrix in="SourceAlpha" type="matrix" values="0 0 0 0 0 0 0 0 0 0 0 0 0 0 0 0 0 0 127 0" result="hardAlpha"/>
<feOffset/>
<feGaussianBlur stdDeviation="6.5"/>
<feComposite in2="hardAlpha" operator="arithmetic" k2="-1" k3="1"/>
<feColorMatrix type="matrix" values="0 0 0 0 0.160784 0 0 0 0 0.4 0 0 0 0 1 0 0 0 1 0"/>
<feBlend mode="normal" in2="shape" result="effect2_innerShadow_120_1331"/>
</filter>
<filter id="filter6_di_120_1331" x="51.149" y="53.9158" width="320.702" height="317.637" filterUnits="userSpaceOnUse" color-interpolation-filters="sRGB">
<feFlood flood-opacity="0" result="BackgroundImageFix"/>
<feColorMatrix in="SourceAlpha" type="matrix" values="0 0 0 0 0 0 0 0 0 0 0 0 0 0 0 0 0 0 127 0" result="hardAlpha"/>
<feOffset/>
<feGaussianBlur stdDeviation="6.5"/>
<feComposite in2="hardAlpha" operator="out"/>
<feColorMatrix type="matrix" values="0 0 0 0 0.160784 0 0 0 0 0.4 0 0 0 0 1 0 0 0 1 0"/>
<feBlend mode="normal" in2="BackgroundImageFix" result="effect1_dropShadow_120_1331"/>
<feBlend mode="normal" in="SourceGraphic" in2="effect1_dropShadow_120_1331" result="shape"/>
<feColorMatrix in="SourceAlpha" type="matrix" values="0 0 0 0 0 0 0 0 0 0 0 0 0 0 0 0 0 0 127 0" result="hardAlpha"/>
<feOffset/>
<feGaussianBlur stdDeviation="6.5"/>
<feComposite in2="hardAlpha" operator="arithmetic" k2="-1" k3="1"/>
<feColorMatrix type="matrix" values="0 0 0 0 0.160784 0 0 0 0 0.4 0 0 0 0 1 0 0 0 1 0"/>
<feBlend mode="normal" in2="shape" result="effect2_innerShadow_120_1331"/>
</filter>
<filter id="filter7_di_120_1331" x="61.8265" y="65.2831" width="299.352" height="294.898" filterUnits="userSpaceOnUse" color-interpolation-filters="sRGB">
<feFlood flood-opacity="0" result="BackgroundImageFix"/>
<feColorMatrix in="SourceAlpha" type="matrix" values="0 0 0 0 0 0 0 0 0 0 0 0 0 0 0 0 0 0 127 0" result="hardAlpha"/>
<feOffset/>
<feGaussianBlur stdDeviation="6.5"/>
<feComposite in2="hardAlpha" operator="out"/>
<feColorMatrix type="matrix" values="0 0 0 0 0.160784 0 0 0 0 0.4 0 0 0 0 1 0 0 0 1 0"/>
<feBlend mode="normal" in2="BackgroundImageFix" result="effect1_dropShadow_120_1331"/>
<feBlend mode="normal" in="SourceGraphic" in2="effect1_dropShadow_120_1331" result="shape"/>
<feColorMatrix in="SourceAlpha" type="matrix" values="0 0 0 0 0 0 0 0 0 0 0 0 0 0 0 0 0 0 127 0" result="hardAlpha"/>
<feOffset/>
<feGaussianBlur stdDeviation="6.5"/>
<feComposite in2="hardAlpha" operator="arithmetic" k2="-1" k3="1"/>
<feColorMatrix type="matrix" values="0 0 0 0 0.160784 0 0 0 0 0.4 0 0 0 0 1 0 0 0 1 0"/>
<feBlend mode="normal" in2="shape" result="effect2_innerShadow_120_1331"/>
</filter>
<filter id="filter8_di_120_1331" x="69.5781" y="65.1057" width="281.886" height="296.476" filterUnits="userSpaceOnUse" color-interpolation-filters="sRGB">
<feFlood flood-opacity="0" result="BackgroundImageFix"/>
<feColorMatrix in="SourceAlpha" type="matrix" values="0 0 0 0 0 0 0 0 0 0 0 0 0 0 0 0 0 0 127 0" result="hardAlpha"/>
<feOffset/>
<feGaussianBlur stdDeviation="6.5"/>
<feComposite in2="hardAlpha" operator="out"/>
<feColorMatrix type="matrix" values="0 0 0 0 0.160784 0 0 0 0 0.4 0 0 0 0 1 0 0 0 1 0"/>
<feBlend mode="normal" in2="BackgroundImageFix" result="effect1_dropShadow_120_1331"/>
<feBlend mode="normal" in="SourceGraphic" in2="effect1_dropShadow_120_1331" result="shape"/>
<feColorMatrix in="SourceAlpha" type="matrix" values="0 0 0 0 0 0 0 0 0 0 0 0 0 0 0 0 0 0 127 0" result="hardAlpha"/>
<feOffset/>
<feGaussianBlur stdDeviation="6.5"/>
<feComposite in2="hardAlpha" operator="arithmetic" k2="-1" k3="1"/>
<feColorMatrix type="matrix" values="0 0 0 0 0.160784 0 0 0 0 0.4 0 0 0 0 1 0 0 0 1 0"/>
<feBlend mode="normal" in2="shape" result="effect2_innerShadow_120_1331"/>
</filter>
</defs>
</svg>
