<svg width="126" height="28" viewBox="0 0 126 28" fill="none" xmlns="http://www.w3.org/2000/svg">
<g clip-path="url(#clip0_120_1112)">
<path d="M35.9512 24.1326C35.995 23.8334 36.0265 23.5636 36.072 23.2973C36.4837 20.9625 36.8972 18.6283 37.3124 16.2947C37.6886 14.1934 38.077 12.0921 38.4531 9.98908C38.8031 8.05036 39.139 6.10817 39.4819 4.16771C39.5291 3.89619 39.5904 3.62639 39.6324 3.35487C39.6339 3.3175 39.6436 3.28091 39.6608 3.24762C39.6781 3.21434 39.7024 3.18517 39.7322 3.16213C39.762 3.13909 39.7966 3.12274 39.8334 3.11421C39.8702 3.10568 39.9085 3.10518 39.9455 3.11274C40.0295 3.11274 40.1205 3.11274 40.1975 3.11274C45.5629 3.11274 50.9224 3.11274 56.2762 3.11274C57.2556 3.11148 58.2319 3.22174 59.1857 3.44134C60.6484 3.78723 61.5459 4.69866 61.9396 6.10471C62.2166 7.11819 62.3078 8.17249 62.209 9.21774C62.1416 10.306 61.9202 11.3794 61.5512 12.4069C61.0805 13.659 60.2414 14.7432 59.142 15.5199C59.0335 15.596 58.9338 15.6929 58.7921 15.7983C58.9478 15.8935 59.0493 15.9713 59.1578 16.0215C60.5417 16.7582 61.0053 17.9031 60.8024 19.3074C60.5854 20.793 60.316 22.2717 60.0675 23.7539C59.9993 24.1638 59.9713 24.1845 59.5602 24.1845H54.6928C54.5703 24.1845 54.4479 24.1707 54.3097 24.162C54.2891 24.0918 54.2785 24.019 54.2782 23.9459C54.4864 22.7231 54.7016 21.5021 54.9045 20.2777C54.9375 20.073 54.9469 19.8653 54.9325 19.6585C54.8923 19.0688 54.5423 18.6917 54.014 18.4825C53.7165 18.365 53.4057 18.2837 53.0884 18.2404C52.6606 18.1807 52.2293 18.1495 51.7972 18.147C48.9699 18.14 46.1432 18.14 43.317 18.147C42.7221 18.147 42.7256 18.147 42.6172 18.7194C42.3302 20.3762 42.0386 22.0325 41.7424 23.6882C41.7319 23.7435 41.7126 23.7954 41.7004 23.849C41.6234 24.1811 41.6251 24.1862 41.2997 24.1949C39.6364 24.1949 37.9714 24.1949 36.3047 24.1949C36.1859 24.1798 36.0679 24.159 35.9512 24.1326ZM43.6074 13.2647C43.8051 13.2785 43.9398 13.2993 44.0746 13.2993C47.2623 13.2993 50.4501 13.2993 53.6378 13.2993C54.1666 13.3062 54.6846 13.1509 55.1204 12.8548C55.5562 12.5587 55.8885 12.1364 56.0715 11.6459C56.3671 10.8687 56.4865 10.0369 56.4214 9.2091C56.3812 8.57093 56.0522 8.17142 55.4749 8.04517C55.2044 7.98036 54.9274 7.94555 54.6491 7.9414C51.4473 7.93448 48.2462 7.93448 45.0456 7.9414C44.8951 7.9414 44.7464 7.96042 44.5645 7.97253C44.2303 9.73658 43.9031 11.4747 43.6074 13.2647Z" fill="white"/>
<path d="M92.0788 16.3812H97.8017C97.758 16.6821 97.7335 16.964 97.6758 17.2459C97.4791 18.2912 97.1755 19.3139 96.7695 20.2984C96.3548 21.2479 95.8247 22.1161 94.9849 22.7629C94.3078 23.2535 93.5323 23.595 92.7104 23.7643C91.898 23.9591 91.0682 24.0749 90.233 24.1102C86.4014 24.2658 82.5716 24.1534 78.74 24.1638C77.7206 24.1703 76.7059 24.0275 75.7289 23.7401C74.6914 23.4322 73.8044 22.9168 73.269 21.9414C72.9599 21.3496 72.7732 20.7029 72.7197 20.039C72.5797 18.735 72.7844 17.4586 73.0101 16.1823C73.3303 14.3646 73.6644 12.5504 73.9898 10.7293C74.217 9.34036 74.6288 7.98717 75.2146 6.70485C76.0526 4.94425 77.4435 3.84432 79.3418 3.35142C80.3984 3.06995 81.4862 2.91949 82.5803 2.90349C85.7838 2.87755 88.9873 2.84815 92.189 2.86371C93.5887 2.87236 94.9884 2.99861 96.3023 3.53301C97.7632 4.12622 98.6205 5.21405 98.9512 6.72214C99.2276 7.98638 99.0824 9.24197 98.869 10.4976C98.841 10.6705 98.7623 10.7431 98.5943 10.7414H93.5555C93.433 10.7414 93.3105 10.7241 93.1548 10.712C93.1548 10.5391 93.1548 10.3903 93.1548 10.2451C93.1706 9.99774 93.2021 9.75043 93.2196 9.50485C93.279 8.66606 92.7647 8.12128 92.0176 7.93622C91.4802 7.79262 90.9277 7.71193 90.3712 7.69583C88.1201 7.66816 85.8678 7.66816 83.6143 7.69583C83.0168 7.72461 82.4218 7.79221 81.8332 7.89818C80.913 8.02443 80.3513 8.58996 80.1047 9.43394C79.8842 10.1863 79.7075 10.9559 79.5605 11.7255C79.2718 13.2284 79.0164 14.7365 78.754 16.2428C78.6472 16.8551 78.565 17.4673 78.705 18.0899C78.7447 18.3228 78.8507 18.5396 79.0106 18.7151C79.1705 18.8906 79.3776 19.0175 79.6078 19.0809C80.1304 19.2387 80.6745 19.3157 81.2209 19.3092C83.654 19.3092 86.0877 19.3092 88.5219 19.3092C89.1669 19.3093 89.8082 19.2125 90.4237 19.0221C90.695 18.9497 90.9454 18.8154 91.1547 18.6301C91.364 18.4448 91.5265 18.2136 91.6292 17.955C91.7621 17.6229 91.8549 17.2753 91.9564 16.9329C92.0053 16.7738 92.0281 16.5905 92.0788 16.3812Z" fill="white"/>
<path d="M124.73 16.4283C124.645 16.8641 124.573 17.2827 124.48 17.6943C124.262 18.7355 123.926 19.7491 123.478 20.7156C123.143 21.4725 122.631 22.1397 121.984 22.6621C121.337 23.1845 120.573 23.5471 119.756 23.7197C118.931 23.9185 118.089 24.0452 117.24 24.0985C114.642 24.2507 112.041 24.1313 109.441 24.1659C108.225 24.1815 107.005 24.1971 105.789 24.1659C104.757 24.1572 103.73 24.0219 102.731 23.763C101.681 23.4672 100.761 22.9795 100.201 21.9972C99.847 21.3517 99.6431 20.6361 99.6046 19.9028C99.5136 18.6922 99.6694 17.5075 99.8828 16.3245C100.21 14.5069 100.532 12.6927 100.863 10.8715C101.087 9.48135 101.489 8.12496 102.059 6.83498C102.908 5.01212 104.302 3.84474 106.278 3.35011C107.333 3.07475 108.418 2.92552 109.509 2.90564C112.713 2.88316 115.916 2.85721 119.118 2.86759C120.239 2.85434 121.358 2.99164 122.442 3.27574C123.609 3.59915 124.604 4.16815 125.259 5.21793C125.687 5.9462 125.931 6.76631 125.969 7.60805C126.019 8.50416 125.961 9.40299 125.794 10.2853C125.719 10.728 125.705 10.7401 125.269 10.7401H120.453C120.318 10.7401 120.185 10.7245 120.024 10.7159C120.056 10.3856 120.068 10.0985 120.113 9.81484C120.265 8.84288 119.793 8.20125 118.992 7.94356C118.431 7.77244 117.848 7.68671 117.261 7.68933C115.022 7.67204 112.784 7.66339 110.545 7.68933C109.819 7.68267 109.097 7.77699 108.398 7.96951C108.108 8.05198 107.842 8.19968 107.62 8.40103C107.398 8.60238 107.226 8.85188 107.117 9.12997C106.827 9.86511 106.624 10.6313 106.514 11.4129C106.278 12.7567 106.038 14.1005 105.803 15.4442C105.705 16.0011 105.578 16.5563 105.536 17.1166C105.52 17.5011 105.562 17.8857 105.66 18.2581C105.703 18.4413 105.795 18.6099 105.925 18.7471C106.055 18.8843 106.22 18.9853 106.402 19.0398C106.93 19.2237 107.486 19.315 108.046 19.3096C110.51 19.32 112.973 19.3252 115.435 19.3096C115.979 19.2918 116.521 19.2247 117.053 19.109C117.429 19.0502 117.78 18.8854 118.064 18.6345C118.347 18.3836 118.552 18.0571 118.652 17.6943C118.756 17.3651 118.839 17.0302 118.903 16.6912C118.943 16.4819 119.022 16.3712 119.252 16.3712C121.014 16.3712 122.776 16.3741 124.54 16.3799C124.605 16.389 124.669 16.4052 124.73 16.4283Z" fill="white"/>
<path d="M63.1105 24.1372C63.0935 24.0623 63.0853 23.9857 63.086 23.909C64.3177 16.9911 65.55 10.0819 66.7829 3.18135C67.152 3.07931 72.0999 3.07585 72.4988 3.18135C72.469 3.41482 72.448 3.65868 72.406 3.89562C71.8858 6.78612 71.3656 9.6749 70.8454 12.562C70.3963 15.0708 69.949 17.5809 69.5035 20.092C69.2813 21.3407 69.0608 22.5894 68.8316 23.8363C68.7704 24.1701 68.7599 24.1736 68.4362 24.1822H63.4411C63.3344 24.1701 63.2277 24.1494 63.1105 24.1372Z" fill="white"/>
<path d="M3.5949 10.2514C3.24499 10.0249 2.94581 9.83288 2.65013 9.62708C2.42443 9.46969 2.41393 9.42646 2.54865 9.18433C2.80059 8.7364 3.05953 8.29885 3.32547 7.85438C4.64932 5.58532 5.97726 3.318 7.30928 1.0524C7.45312 0.803412 7.62961 0.574295 7.83415 0.370991C7.98123 0.239684 8.15352 0.13895 8.34077 0.0747752C8.52801 0.0106008 8.72641 -0.0157033 8.92414 -0.00257329C9.69396 -0.00257329 10.462 -0.00257329 11.2319 -0.00257329C11.6045 -0.00257329 11.6255 0.028557 11.6308 0.409039C11.6308 0.616574 11.6308 0.82411 11.6308 1.03165C11.6308 1.44499 11.6308 1.45363 11.2144 1.45536C10.5285 1.45536 9.84268 1.4692 9.15859 1.45536C9.02908 1.44197 8.89861 1.46937 8.7858 1.53367C8.673 1.59796 8.58364 1.69586 8.53049 1.81336C7.33202 3.88353 6.12481 5.94851 4.90884 8.01349C4.48369 8.74159 4.05504 9.46797 3.5949 10.2514Z" fill="white"/>
<path d="M6.39629 22.6167L5.25731 23.3881C5.18033 23.2826 5.1016 23.1944 5.04211 23.0941C3.45582 20.3846 1.87069 17.6751 0.286734 14.9656C0.0995797 14.68 0 14.3469 0 14.0066C0 13.6663 0.0995797 13.3332 0.286734 13.0476C0.622655 12.4942 0.942829 11.9304 1.26475 11.377C1.70927 11.5565 2.11712 11.8144 2.46847 12.1379C2.40723 12.259 2.34425 12.3939 2.27077 12.5219C2.04157 12.9162 1.81587 13.314 1.57093 13.7014C1.50565 13.79 1.47048 13.8969 1.47048 14.0066C1.47048 14.1163 1.50565 14.2232 1.57093 14.3119C2.59269 16.0413 3.6022 17.7708 4.61521 19.5002C5.17391 20.4503 5.73495 21.4055 6.29831 22.366C6.33632 22.4474 6.36905 22.5312 6.39629 22.6167Z" fill="white"/>
<path d="M28.8077 17.4668L29.9974 18.2727C29.6475 18.8677 29.3273 19.4436 28.9932 20.0143C27.6716 22.273 26.3495 24.5311 25.0269 26.7886C24.9639 26.8958 24.8956 27.0013 24.8362 27.1103C24.6981 27.4005 24.4728 27.6415 24.1909 27.8003C23.9091 27.9591 23.5845 28.028 23.2615 27.9975C22.9956 27.9854 22.7366 27.9975 22.4637 27.9975C22.2748 27.9975 22.175 27.9214 22.1768 27.7294C22.1768 27.4527 22.1768 27.176 22.1768 26.901C22.1709 26.8631 22.1739 26.8244 22.1856 26.7878C22.1973 26.7512 22.2174 26.7178 22.2444 26.6902C22.2713 26.6626 22.3043 26.6415 22.3408 26.6286C22.3774 26.6156 22.4164 26.6112 22.455 26.6157C22.6649 26.6157 22.8749 26.6053 23.0848 26.6157C23.2032 26.6243 23.3214 26.5967 23.4234 26.5367C23.5255 26.4767 23.6064 26.3871 23.6552 26.2801C24.5078 24.8066 25.3657 23.3354 26.2288 21.8666C27.0756 20.4069 27.9242 18.9697 28.8077 17.4668Z" fill="white"/>
<path d="M12.9746 17.4121C13.6884 17.7027 14.3183 17.9552 14.9464 18.218C15.7705 18.5639 16.5893 18.9098 17.4151 19.2557C17.706 19.3626 17.9428 19.5781 18.0747 19.8558L19.623 23.1608C19.6389 23.2135 19.6506 23.2673 19.658 23.3217C19.5321 23.2802 19.4306 23.2542 19.3326 23.2162C18.1079 22.7319 16.8692 22.2442 15.6357 21.7617C15.4343 21.7001 15.2629 21.567 15.1546 21.3881C14.4548 20.1452 13.7549 18.9023 13.0551 17.6594C13.0236 17.5785 12.9967 17.496 12.9746 17.4121Z" fill="white"/>
<path d="M20.6324 13.9727C20.8686 14.5745 21.1066 15.1833 21.3323 15.7765C21.6192 16.5098 21.9009 17.2448 22.1913 17.9764C22.2905 18.1904 22.3061 18.4331 22.2351 18.6578C21.7872 19.9791 21.3603 21.3021 20.9089 22.6252C20.8843 22.6796 20.8556 22.7322 20.8231 22.7825C20.6762 22.4903 20.538 22.2308 20.412 21.9645C20.0376 21.1776 19.6754 20.3838 19.294 19.6003C19.1864 19.4004 19.1214 19.1807 19.103 18.9549C19.0847 18.7292 19.1134 18.5021 19.1873 18.2877C19.6369 16.9387 20.0411 15.5759 20.4627 14.22C20.4872 14.1421 20.517 14.066 20.545 13.99L20.6324 13.9727Z" fill="white"/>
<path d="M11.4369 4.24023C11.7273 4.55154 12.016 4.86457 12.3117 5.17241C13.001 5.89533 13.6816 6.62516 14.3884 7.33078C14.5993 7.54982 14.7235 7.83646 14.7384 8.13844C14.9028 9.50472 15.069 10.8698 15.237 12.2338C15.2309 12.2729 15.2204 12.3112 15.2055 12.348C15.1408 12.3026 15.0789 12.2535 15.02 12.201L12.6598 9.73474C12.6058 9.67297 12.5474 9.61517 12.4849 9.56179C11.9985 9.17439 11.8305 8.65901 11.7851 8.05716C11.6993 7.02986 11.5559 6.00602 11.4351 4.98217C11.4089 4.75216 11.3774 4.52214 11.3477 4.29039L11.4369 4.24023Z" fill="white"/>
<path d="M31.0594 16.3955L29.8924 15.6155C30.1513 15.1658 30.3665 14.7508 30.6255 14.3582C30.7045 14.2549 30.7473 14.1288 30.7473 13.9993C30.7473 13.8698 30.7045 13.7438 30.6255 13.6404C29.6877 12.0563 28.7639 10.4652 27.8366 8.87578C27.7894 8.79276 27.7509 8.70283 27.6914 8.58696L28.8689 7.7793C29.0998 8.17188 29.308 8.52642 29.5145 8.88096C30.3368 10.2911 31.1597 11.7006 31.9831 13.1095C32.1499 13.3746 32.2395 13.68 32.2419 13.9922C32.2444 14.3043 32.1597 14.6111 31.9971 14.8787C31.7749 15.2782 31.5405 15.6708 31.3078 16.0634C31.2361 16.1689 31.1573 16.2623 31.0594 16.3955Z" fill="white"/>
<path d="M16.972 17.5623C15.9065 17.187 14.9249 16.8394 13.9399 16.4953C13.6972 16.4225 13.4903 16.2636 13.3591 16.0491C12.5927 14.7485 11.8287 13.4485 11.0671 12.1491C11.0428 12.0971 11.0223 12.0433 11.0059 11.9883C11.1023 12.0082 11.1975 12.0336 11.291 12.0644C12.3793 12.4916 13.464 12.9291 14.5575 13.3476C14.7343 13.4073 14.8961 13.5038 15.0319 13.6306C15.1678 13.7574 15.2745 13.9116 15.3448 14.0827C15.8295 15.1653 16.3561 16.2307 16.867 17.3029C16.895 17.3635 16.9142 17.4257 16.972 17.5623Z" fill="white"/>
<path d="M17.6709 8.99219C17.8738 9.54562 18.0774 10.0985 18.2815 10.6507C18.5719 11.4411 18.8518 12.2349 19.1563 13.0201C19.2424 13.223 19.2868 13.4408 19.2868 13.6609C19.2868 13.8809 19.2424 14.0988 19.1563 14.3016C18.8448 15.0695 18.5684 15.8495 18.2815 16.6243C18.2377 16.7384 18.1852 16.8474 18.1065 17.0255C17.9928 16.78 17.9071 16.5966 17.8213 16.415C17.3402 15.4379 16.8835 14.4607 16.4147 13.4888C16.2869 13.2558 16.2568 12.9826 16.3307 12.7278C16.7331 11.4809 17.1442 10.2391 17.5554 8.99392L17.6709 8.99219Z" fill="white"/>
<path d="M26.593 6.74358C26.2851 6.22474 26.0156 5.77508 25.7515 5.32196C25.0831 4.1736 24.4095 3.0287 23.7517 1.87342C23.5767 1.57595 23.386 1.41511 23.0239 1.46007C22.7728 1.47824 22.5208 1.47824 22.2698 1.46007C21.9811 1.46007 21.9461 1.42548 21.9356 1.16088C21.9251 0.896269 21.9251 0.607449 21.9356 0.332464C21.9461 0.0574797 21.9811 0.0125136 22.247 -0.00132206C22.6529 -0.0116988 23.0588 -0.0134283 23.4717 -0.00132206C23.7393 0.00714723 24.0002 0.0839043 24.2289 0.221489C24.4576 0.359073 24.6464 0.552805 24.7769 0.783854C25.2266 1.52925 25.6675 2.2833 26.1084 3.03216C26.6123 3.89228 27.1138 4.75355 27.613 5.61597C27.6603 5.69726 27.7022 5.78892 27.7687 5.90825L26.593 6.74358Z" fill="white"/>
<path d="M16.1979 27.9933H12.9717C12.5325 27.9933 12.5255 27.9829 12.522 27.5557C12.522 27.3343 12.522 27.1147 12.522 26.8933C12.5166 26.8554 12.5201 26.8167 12.5323 26.7802C12.5444 26.7438 12.565 26.7107 12.5922 26.6834C12.6195 26.6561 12.6528 26.6354 12.6894 26.6229C12.7261 26.6105 12.7652 26.6065 12.8037 26.6114C12.8999 26.6114 12.9979 26.6114 13.0959 26.6114H19.2982C19.3821 26.6114 19.4731 26.6114 19.5484 26.6114C19.8178 26.6322 19.8598 26.6685 19.872 26.9366C19.872 27.17 19.872 27.4052 19.872 27.6387C19.872 27.9621 19.8388 27.9846 19.5064 27.9933C18.7803 27.9933 18.0542 27.9933 17.3281 27.9933H16.1979Z" fill="white"/>
<path d="M16.4076 1.4614C15.4576 1.4614 14.5058 1.4614 13.5558 1.4614C13.1359 1.4614 13.1306 1.4614 13.1271 1.04978C13.1271 0.800741 13.1271 0.551699 13.1271 0.304385C13.1219 0.0899321 13.2251 0 13.4298 0H19.3784C19.5814 0 19.6881 0.0864731 19.6828 0.300927C19.6828 0.575911 19.6828 0.852625 19.6828 1.12761C19.6828 1.40259 19.6514 1.45448 19.3329 1.45621C18.6751 1.45621 18.019 1.45621 17.3611 1.45621L16.4076 1.4614Z" fill="white"/>
<path d="M6.30078 25.2619L7.501 24.4629C7.73194 24.8486 7.94364 25.1996 8.15359 25.5525C8.29531 25.7911 8.44578 26.0229 8.5665 26.2702C8.6128 26.3788 8.69285 26.47 8.79508 26.5306C8.8973 26.5912 9.01639 26.6181 9.13511 26.6074C9.67923 26.6074 10.2234 26.6074 10.7675 26.6074C11.1944 26.6074 11.2154 26.6351 11.2206 27.0554C11.2206 27.2629 11.2206 27.4704 11.2206 27.6762C11.2084 27.9512 11.1786 27.9841 10.9004 27.991C10.5243 27.991 10.1464 27.991 9.76846 27.991C9.44829 27.991 9.12636 27.991 8.80619 27.991C8.55994 28.0022 8.31505 27.949 8.09631 27.8366C7.87757 27.7242 7.69272 27.5567 7.56048 27.3511C7.12484 26.6904 6.73993 25.9883 6.30078 25.2619Z" fill="white"/>
</g>
<defs>
<clipPath id="clip0_120_1112">
<rect width="126" height="28" fill="white"/>
</clipPath>
</defs>
</svg>
