<svg width="283" height="297" viewBox="0 0 283 297" fill="none" xmlns="http://www.w3.org/2000/svg">
    <g filter="url(#filter0_di_120_1240)">
        <path d="M60.324 249.008L54.7587 245.953L54.9993 245.515L54.5355 245.26C54.3852 245.178 54.2351 245.095 54.0855 245.011L53.8419 245.448C52.0268 244.436 50.2635 243.355 48.5544 242.21L48.8327 241.795C48.5483 241.604 48.2655 241.412 47.9841 241.218L47.7002 241.63C45.9914 240.451 44.3385 239.208 42.7441 237.904L43.0606 237.517C42.7957 237.3 42.5324 237.082 42.2707 236.862L41.949 237.244C40.3619 235.91 38.8347 234.515 37.3701 233.064L37.722 232.708C37.4789 232.468 37.2375 232.225 36.9978 231.981L36.6411 232.331C35.1898 230.854 33.8022 229.32 32.481 227.734L32.8651 227.414C32.646 227.151 32.4287 226.887 32.2133 226.621L31.8248 226.936C30.5219 225.328 29.2862 223.669 28.1206 221.964L28.5334 221.682C28.3402 221.399 28.149 221.116 27.9597 220.83L27.5432 221.107C26.3998 219.384 25.3271 217.616 24.3278 215.806L24.7655 215.564C24.6001 215.265 24.4367 214.964 24.2753 214.662L23.8343 214.898C22.8605 213.076 21.9605 211.214 21.1368 209.316L21.5955 209.117C21.4593 208.803 21.3253 208.488 21.1933 208.172L20.7319 208.365C19.9363 206.46 19.2171 204.521 18.5771 202.551L19.0526 202.397C18.9469 202.071 18.8434 201.745 18.7421 201.418L18.2645 201.566C17.6541 199.597 17.1226 197.598 16.6725 195.574L17.1606 195.465C17.0864 195.132 17.0144 194.797 16.9447 194.462L16.4552 194.564C16.0355 192.548 15.6965 190.507 15.4408 188.447L15.937 188.386C15.8949 188.046 15.8551 187.707 15.8175 187.367L15.3206 187.421C15.095 185.377 14.9513 183.314 14.8923 181.236L15.3921 181.222C15.3872 181.051 15.3829 180.879 15.3792 180.708L15.3677 180.179L14.8679 180.19L14.7305 173.843L15.2303 173.832L15.2074 172.774L14.7076 172.785L14.5702 166.438L15.07 166.427L15.0471 165.369L14.5473 165.38L14.4098 159.033L14.9097 159.022L14.8868 157.965L14.3869 157.975L14.2495 151.628L14.7494 151.618L14.7265 150.56L14.2266 150.571L14.0892 144.224L14.5891 144.213L14.5662 143.155L14.0663 143.166L13.9289 136.819L14.4288 136.808L14.4059 135.75L13.906 135.761L13.7686 129.414L14.2685 129.403L14.2456 128.346L13.7457 128.356L13.6083 122.009L14.1082 121.999L14.0968 121.47C14.093 121.298 14.0899 121.127 14.0874 120.955L13.5874 120.963C13.5565 118.885 13.6107 116.817 13.7476 114.765L14.2465 114.798C14.2693 114.457 14.2944 114.116 14.3218 113.775L13.8234 113.735C13.9897 111.666 14.24 109.612 14.5721 107.58L15.0655 107.66C15.1207 107.323 15.1781 106.985 15.2378 106.649L14.7455 106.561C15.1075 104.52 15.5521 102.5 16.0767 100.506L16.5602 100.633C16.6473 100.302 16.7366 99.9715 16.8281 99.642L16.3463 99.5082C16.9005 97.5125 17.5351 95.5438 18.2476 93.6069L18.7168 93.7795C18.835 93.4582 18.9553 93.1379 19.0778 92.8184L18.6109 92.6394C19.3516 90.7073 20.1703 88.8078 21.0643 86.9456L21.5151 87.1621C21.6632 86.8535 21.8135 86.546 21.9658 86.2395L21.518 86.0169C22.4381 84.1655 23.4332 82.3523 24.501 80.582L24.9291 80.8402C25.1059 80.5471 25.2846 80.2552 25.4654 79.9645L25.0408 79.7005C26.1315 77.9463 27.2942 76.2357 28.5264 74.5733L28.9281 74.871C29.1318 74.5961 29.3374 74.3226 29.545 74.0504L29.1474 73.7472C30.3987 72.106 31.7186 70.5135 33.1046 68.9743L33.4762 69.3089C33.705 69.0547 33.9357 68.802 34.1682 68.5508L33.8012 68.2112C35.2017 66.6978 36.6671 65.238 38.1949 63.8362L38.5329 64.2046C38.7848 63.9735 39.0384 63.744 39.2937 63.5161L38.9607 63.1431C40.4972 61.7714 42.0948 60.4576 43.751 59.2061L44.0524 59.6051C44.3251 59.399 44.5993 59.1947 44.8752 58.9921L44.5792 58.5891C46.2371 57.3714 47.9521 56.2155 49.7217 55.1256L49.9839 55.5513C50.1298 55.4614 50.2761 55.372 50.4227 55.2831L50.8751 55.0087L50.6158 54.5812L56.0437 51.2887L56.303 51.7162L57.2076 51.1675L56.9483 50.74L62.3762 47.4475L62.6355 47.875L63.5402 47.3263L63.2809 46.8988L68.7088 43.6063L68.9681 44.0338L69.8727 43.4851L69.6134 43.0576L75.0413 39.7651L75.3006 40.1926L76.2053 39.6439L75.946 39.2164L81.3739 35.9239L81.6332 36.3514L82.5378 35.8027L82.2785 35.3752L87.7064 32.0827L87.9657 32.5102L88.8704 31.9615L88.6111 31.534L94.039 28.2415L94.2983 28.669L95.2029 28.1202L94.9436 27.6927L100.372 24.4003L100.631 24.8278L101.083 24.5534C101.23 24.4645 101.377 24.376 101.524 24.2881L101.267 23.8589C103.052 22.7931 104.869 21.8063 106.715 20.8987L106.936 21.3473C107.243 21.1963 107.551 21.0475 107.86 20.9009L107.645 20.4492C109.52 19.5586 111.423 18.7489 113.35 18.02L113.527 18.4877C113.847 18.3666 114.168 18.2477 114.489 18.1311L114.318 17.6611C116.268 16.9539 118.239 16.3288 120.229 15.7861L120.36 16.2684C120.69 16.1783 121.021 16.0905 121.352 16.005L121.227 15.5209C123.233 15.0029 125.255 14.5682 127.288 14.2167L127.374 14.7094C127.711 14.6511 128.049 14.5951 128.386 14.5415L128.308 14.0476C130.352 13.723 132.406 13.4823 134.466 13.3255L134.504 13.8241C134.845 13.7981 135.186 13.7744 135.528 13.7531L135.497 13.254C137.56 13.1251 139.628 13.0803 141.695 13.1198L141.686 13.6198C142.028 13.6263 142.37 13.6352 142.712 13.6463L142.728 13.1466C144.793 13.2141 146.856 13.3657 148.911 13.6016L148.854 14.0983C149.194 14.1374 149.534 14.1787 149.874 14.2223L149.937 13.7264C151.984 13.9895 154.023 14.3363 156.049 14.767L155.945 15.2561C156.28 15.3272 156.614 15.4006 156.948 15.4763L157.059 14.9887C159.069 15.4449 161.066 15.984 163.044 16.6062L162.894 17.0832C163.22 17.1858 163.546 17.2906 163.871 17.3978L164.027 16.9229C165.984 17.5677 167.92 18.2943 169.832 19.1029L169.637 19.5634C169.952 19.6966 170.266 19.8319 170.58 19.9695L170.781 19.5117C172.664 20.3387 174.523 21.2459 176.351 22.2334L176.114 22.6734C176.265 22.7548 176.415 22.8368 176.565 22.9193L177.029 23.1739L177.27 22.7355L182.835 25.79L182.595 26.2283L183.522 26.7374L183.763 26.2991L189.328 29.3535L189.087 29.7919L190.015 30.3009L190.256 29.8626L195.821 32.9171L195.58 33.3554L196.508 33.8645L196.748 33.4262L202.314 36.4806L202.073 36.919L203.001 37.428L203.241 36.9897L208.807 40.0442L208.566 40.4825L209.494 40.9916L209.734 40.5533L215.299 43.6077L215.059 44.0461L215.986 44.5551L216.227 44.1168L221.792 47.1713L221.552 47.6096L222.479 48.1187L222.72 47.6804L228.285 50.7348L228.045 51.1732L228.508 51.4277C228.659 51.5102 228.809 51.5932 228.958 51.6767L229.202 51.24C231.017 52.2523 232.78 53.3329 234.489 54.4778L234.211 54.8932C234.496 55.0837 234.778 55.2759 235.06 55.47L235.344 55.0584C237.052 56.237 238.705 57.4804 240.3 58.7843L239.983 59.1714C240.248 59.388 240.511 59.6063 240.773 59.8263L241.095 59.4436C242.682 60.778 244.209 62.173 245.674 63.6244L245.322 63.9795C245.565 64.2205 245.806 64.4629 246.046 64.707L246.403 64.3566C247.854 65.8344 249.242 67.3683 250.563 68.9538L250.179 69.2739C250.398 69.5369 250.615 69.8013 250.831 70.0671L251.219 69.7522C252.522 71.3598 253.758 73.0185 254.923 74.7238L254.51 75.006C254.704 75.2885 254.895 75.5724 255.084 75.8576L255.501 75.5811C256.644 77.3036 257.717 79.072 258.716 80.8819L258.278 81.1236C258.444 81.4232 258.607 81.7239 258.769 82.0258L259.21 81.7901C260.183 83.6118 261.083 85.474 261.907 87.3723L261.448 87.5713C261.585 87.8852 261.719 88.2001 261.851 88.5159L262.312 88.3232C263.108 90.2275 263.827 92.1668 264.467 94.1367L263.991 94.2912C264.097 94.6165 264.2 94.9426 264.302 95.2695L264.779 95.1215C265.39 97.091 265.921 99.09 266.371 101.114L265.883 101.223C265.957 101.556 266.029 101.891 266.099 102.226L266.589 102.124C267.008 104.14 267.347 106.181 267.603 108.241L267.107 108.302C267.149 108.642 267.189 108.981 267.226 109.321L267.723 109.267C267.949 111.311 268.093 113.374 268.152 115.452L267.652 115.466C267.657 115.637 267.661 115.809 267.665 115.98L267.676 116.509L268.176 116.498L268.313 122.845L267.814 122.856L267.836 123.914L268.336 123.903L268.474 130.25L267.974 130.261L267.997 131.319L268.497 131.308L268.634 137.655L268.134 137.666L268.157 138.723L268.657 138.713L268.794 145.06L268.294 145.07L268.317 146.128L268.817 146.117L268.955 152.464L268.455 152.475L268.478 153.533L268.978 153.522L269.115 159.869L268.615 159.88L268.638 160.938L269.138 160.927L269.275 167.274L268.775 167.285L268.798 168.342L269.298 168.332L269.436 174.679L268.936 174.689L268.947 175.218C268.951 175.39 268.954 175.561 268.956 175.733L269.456 175.725C269.487 177.803 269.433 179.871 269.296 181.923L268.797 181.89C268.775 182.231 268.749 182.572 268.722 182.913L269.22 182.953C269.054 185.022 268.804 187.075 268.472 189.108L267.978 189.028C267.923 189.365 267.866 189.703 267.806 190.039L268.298 190.127C267.936 192.168 267.492 194.188 266.967 196.182L266.484 196.055C266.397 196.386 266.307 196.716 266.216 197.046L266.698 197.18C266.143 199.175 265.509 201.144 264.796 203.081L264.327 202.908C264.209 203.23 264.089 203.55 263.966 203.87L264.433 204.049C263.692 205.981 262.874 207.88 261.98 209.742L261.529 209.526C261.381 209.834 261.23 210.142 261.078 210.449L261.526 210.671C260.606 212.522 259.611 214.336 258.543 216.106L258.115 215.848C257.938 216.141 257.759 216.433 257.578 216.723L258.003 216.987C256.912 218.742 255.75 220.452 254.517 222.115L254.116 221.817C253.912 222.092 253.706 222.365 253.499 222.638L253.896 222.941C252.645 224.582 251.325 226.174 249.939 227.714L249.568 227.379C249.339 227.633 249.108 227.886 248.876 228.137L249.243 228.477C247.842 229.99 246.377 231.45 244.849 232.852L244.511 232.483C244.259 232.714 244.005 232.944 243.75 233.172L244.083 233.545C242.547 234.917 240.949 236.23 239.293 237.482L238.991 237.083C238.719 237.289 238.445 237.493 238.169 237.696L238.465 238.099C236.807 239.317 235.092 240.473 233.322 241.562L233.06 241.137C232.914 241.227 232.768 241.316 232.621 241.405L232.169 241.679L232.428 242.107L227 245.399L226.741 244.972L225.836 245.52L226.096 245.948L220.668 249.24L220.408 248.813L219.504 249.362L219.763 249.789L214.335 253.082L214.076 252.654L213.171 253.203L213.43 253.63L208.003 256.923L207.743 256.495L206.839 257.044L207.098 257.472L201.67 260.764L201.411 260.337L200.506 260.885L200.765 261.313L195.337 264.605L195.078 264.178L194.173 264.727L194.433 265.154L189.005 268.446L188.746 268.019L187.841 268.568L188.1 268.995L182.672 272.288L182.413 271.86L181.961 272.135C181.814 272.223 181.667 272.312 181.52 272.4L181.776 272.829C179.992 273.895 178.175 274.882 176.329 275.789L176.108 275.341C175.801 275.492 175.493 275.64 175.184 275.787L175.399 276.239C173.524 277.129 171.62 277.939 169.694 278.668L169.517 278.2C169.197 278.321 168.876 278.44 168.555 278.557L168.725 279.027C166.776 279.734 164.805 280.359 162.815 280.902L162.684 280.42C162.354 280.51 162.023 280.597 161.692 280.683L161.817 281.167C159.811 281.685 157.789 282.12 155.755 282.471L155.67 281.979C155.333 282.037 154.995 282.093 154.657 282.146L154.736 282.64C152.692 282.965 150.638 283.206 148.578 283.362L148.54 282.864C148.199 282.89 147.857 282.914 147.516 282.935L147.547 283.434C145.484 283.563 143.416 283.608 141.349 283.568L141.358 283.068C141.016 283.062 140.674 283.053 140.332 283.042L140.316 283.541C138.251 283.474 136.188 283.322 134.132 283.086L134.189 282.59C133.849 282.551 133.51 282.509 133.17 282.466L133.106 282.962C131.06 282.698 129.02 282.352 126.994 281.921L127.098 281.432C126.764 281.361 126.43 281.287 126.096 281.212L125.985 281.699C123.974 281.243 121.977 280.704 120 280.082L120.15 279.605C119.824 279.502 119.498 279.397 119.173 279.29L119.016 279.765C117.06 279.12 115.124 278.394 113.212 277.585L113.407 277.125C113.092 276.991 112.778 276.856 112.464 276.718L112.263 277.176C110.38 276.349 108.521 275.442 106.693 274.455L106.93 274.015C106.779 273.933 106.629 273.851 106.478 273.769L106.015 273.514L105.774 273.952L100.209 270.898L100.449 270.46L99.5217 269.951L99.2812 270.389L93.7159 267.334L93.9564 266.896L93.0289 266.387L92.7883 266.825L87.223 263.771L87.4636 263.333L86.536 262.823L86.2955 263.262L80.7302 260.207L80.9707 259.769L80.0432 259.26L79.8026 259.698L74.2373 256.644L74.4779 256.205L73.5503 255.696L73.3098 256.135L67.7445 253.08L67.985 252.642L67.0575 252.133L66.8169 252.571L61.2516 249.517L61.4922 249.078L60.5646 248.569L60.324 249.008Z" stroke="#2966FF" stroke-dasharray="1 6" shape-rendering="crispEdges" />
    </g>
    <defs>
        <filter id="filter0_di_120_1240" x="0.57901" y="0.105957" width="281.886" height="296.476" filterUnits="userSpaceOnUse" color-interpolation-filters="sRGB">
            <feFlood flood-opacity="0" result="BackgroundImageFix" />
            <feColorMatrix in="SourceAlpha" type="matrix" values="0 0 0 0 0 0 0 0 0 0 0 0 0 0 0 0 0 0 127 0" result="hardAlpha" />
            <feOffset />
            <feGaussianBlur stdDeviation="6.5" />
            <feComposite in2="hardAlpha" operator="out" />
            <feColorMatrix type="matrix" values="0 0 0 0 0.160784 0 0 0 0 0.4 0 0 0 0 1 0 0 0 1 0" />
            <feBlend mode="normal" in2="BackgroundImageFix" result="effect1_dropShadow_120_1240" />
            <feBlend mode="normal" in="SourceGraphic" in2="effect1_dropShadow_120_1240" result="shape" />
            <feColorMatrix in="SourceAlpha" type="matrix" values="0 0 0 0 0 0 0 0 0 0 0 0 0 0 0 0 0 0 127 0" result="hardAlpha" />
            <feOffset />
            <feGaussianBlur stdDeviation="6.5" />
            <feComposite in2="hardAlpha" operator="arithmetic" k2="-1" k3="1" />
            <feColorMatrix type="matrix" values="0 0 0 0 0.160784 0 0 0 0 0.4 0 0 0 0 1 0 0 0 1 0" />
            <feBlend mode="normal" in2="shape" result="effect2_innerShadow_120_1240" />
        </filter>
    </defs>
</svg>