<svg width="283" height="297" viewBox="0 0 283 297" fill="none" xmlns="http://www.w3.org/2000/svg">
<g filter="url(#filter0_di_4_13)">
<path d="M181.96 272.134C181.813 272.223 181.666 272.312 181.519 272.4L181.776 272.829C179.991 273.895 178.174 274.881 176.328 275.789L176.107 275.34C175.8 275.491 175.492 275.64 175.183 275.787L175.398 276.238C173.523 277.129 171.62 277.939 169.693 278.668L169.516 278.2C169.196 278.321 168.875 278.44 168.554 278.557L168.725 279.027C166.775 279.734 164.804 280.359 162.814 280.902L162.683 280.419C162.353 280.509 162.022 280.597 161.691 280.683L161.816 281.167C159.81 281.685 157.788 282.12 155.755 282.471L155.669 281.978C155.332 282.037 154.994 282.093 154.657 282.146L154.735 282.64C152.691 282.965 150.637 283.205 148.577 283.362L148.539 282.864C148.198 282.89 147.857 282.913 147.515 282.935L147.546 283.434C145.483 283.563 143.415 283.607 141.348 283.568L141.357 283.068C141.015 283.061 140.673 283.053 140.331 283.041L140.315 283.541C138.25 283.474 136.187 283.322 134.132 283.086L134.189 282.589C133.849 282.55 133.509 282.509 133.169 282.465L133.106 282.961C131.059 282.698 129.02 282.351 126.994 281.921L127.098 281.432C126.763 281.361 126.429 281.287 126.095 281.211L125.984 281.699C123.974 281.243 121.977 280.704 119.999 280.081L120.149 279.605C119.823 279.502 119.497 279.397 119.172 279.29L119.016 279.765C117.059 279.12 115.123 278.393 113.211 277.585L113.406 277.124C113.091 276.991 112.777 276.856 112.463 276.718L112.262 277.176C110.379 276.349 108.52 275.442 106.692 274.454L106.929 274.014C106.778 273.933 106.628 273.851 106.478 273.768L106.014 273.514L105.773 273.952L100.208 270.898L100.448 270.459L99.5209 269.95L99.2803 270.389L93.715 267.334L93.9556 266.896L93.028 266.387L92.7875 266.825L87.2222 263.771L87.4627 263.332L86.5352 262.823L86.2946 263.262L80.7293 260.207L80.9699 259.769L80.0423 259.26L79.8018 259.698L74.2365 256.644L74.477 256.205L73.5495 255.696L73.3089 256.134L67.7436 253.08L67.9842 252.642L67.0566 252.133L66.8161 252.571L61.2507 249.516L61.4913 249.078L60.5638 248.569L60.3232 249.007L54.7579 245.953L54.9985 245.515L54.5347 245.26C54.3843 245.177 54.2343 245.094 54.0846 245.011L53.8411 245.448C52.026 244.435 50.2626 243.355 48.5535 242.21L48.8318 241.795C48.5474 241.604 48.2646 241.412 47.9833 241.218L47.6994 241.629C45.9906 240.451 44.3376 239.207 42.7432 237.903L43.0597 237.516C42.7948 237.3 42.5315 237.081 42.2699 236.861L41.9481 237.244C40.3611 235.91 38.8339 234.515 37.3692 233.063L37.7212 232.708C37.478 232.467 37.2366 232.225 36.997 231.981L36.6402 232.331C35.189 230.853 33.8014 229.319 32.4802 227.734L32.8643 227.414C32.6452 227.151 32.4279 226.886 32.2124 226.621L31.824 226.935C30.521 225.328 29.2854 223.669 28.1197 221.964L28.5325 221.682C28.3394 221.399 28.1482 221.115 27.9589 220.83L27.5423 221.107C26.399 219.384 25.3262 217.616 24.3269 215.806L24.7646 215.564C24.5992 215.265 24.4358 214.964 24.2744 214.662L23.8335 214.898C22.8597 213.076 21.9596 211.214 21.136 209.315L21.5947 209.116C21.4585 208.803 21.3244 208.488 21.1924 208.172L20.7311 208.365C19.9354 206.46 19.2162 204.521 18.5762 202.551L19.0518 202.397C18.9461 202.071 18.8426 201.745 18.7412 201.418L18.2637 201.566C17.6533 199.597 17.1217 197.598 16.6716 195.574L17.1597 195.465C17.0855 195.131 17.0135 194.797 16.9438 194.462L16.4543 194.564C16.0346 192.547 15.6956 190.507 15.4399 188.447L15.9361 188.385C15.894 188.046 15.8542 187.707 15.8167 187.366L15.3197 187.421C15.0941 185.376 14.9505 183.313 14.8914 181.236L15.3912 181.222C15.3863 181.05 15.382 180.879 15.3783 180.707L15.3669 180.179L14.867 180.189L14.7296 173.842L15.2295 173.832L15.2066 172.774L14.7067 172.785L14.5693 166.438L15.0692 166.427L15.0463 165.369L14.5464 165.38L14.409 159.033L14.9089 159.022L14.886 157.964L14.3861 157.975L14.2487 151.628L14.7486 151.617L14.7257 150.56L14.2258 150.57L14.0884 144.223L14.5883 144.213L14.5654 143.155L14.0655 143.166L13.9281 136.819L14.428 136.808L14.4051 135.75L13.9052 135.761L13.7678 129.414L14.2677 129.403L14.2448 128.345L13.7449 128.356L13.6075 122.009L14.1074 121.998L14.0959 121.469C14.0922 121.298 14.0891 121.127 14.0865 120.955L13.5866 120.963C13.5557 118.885 13.6099 116.817 13.7468 114.765L14.2457 114.798C14.2684 114.456 14.2935 114.115 14.3209 113.775L13.8225 113.735C13.9888 111.665 14.2392 109.612 14.5712 107.579L15.0647 107.66C15.1198 107.322 15.1773 106.985 15.2369 106.649L14.7446 106.561C15.1067 104.52 15.5512 102.499 16.0758 100.505L16.5594 100.633C16.6464 100.302 16.7357 99.9713 16.8273 99.6417L16.3455 99.5079C16.8996 97.5122 17.5342 95.5436 18.2467 93.6066L18.716 93.7793C18.8341 93.458 18.9545 93.1376 19.077 92.8181L18.6101 92.6391C19.3508 90.707 20.1694 88.8075 21.0635 86.9454L21.5142 87.1618C21.6624 86.8532 21.8126 86.5457 21.9649 86.2392L21.5171 86.0167C22.4372 84.1653 23.4324 82.3521 24.5001 80.5817L24.9283 80.8399C25.105 80.5469 25.2838 80.255 25.4645 79.9643L25.0399 79.7003C26.1306 77.9461 27.2934 76.2355 28.5255 74.573L28.9272 74.8708C29.1309 74.5959 29.3366 74.3223 29.5441 74.0501L29.1465 73.747C30.3979 72.1058 31.7178 70.5133 33.1038 68.9741L33.4753 69.3086C33.7042 69.0545 33.9349 68.8018 34.1674 68.5505L33.8004 68.2109C35.2008 66.6976 36.6662 65.2377 38.194 63.8359L38.5321 64.2044C38.784 63.9733 39.0375 63.7438 39.2928 63.5158L38.9598 63.1428C40.4964 61.7712 42.0939 60.4574 43.7501 59.2059L44.0516 59.6048C44.3242 59.3988 44.5985 59.1945 44.8743 58.9919L44.5784 58.5889C46.2363 57.3712 47.9512 56.2152 49.7208 55.1253L49.983 55.5511C50.1289 55.4612 50.2752 55.3718 50.4219 55.2828L50.8742 55.0085L50.6149 54.581L56.0428 51.2885L56.3021 51.716L57.2068 51.1672L56.9475 50.7397L62.3754 47.4473L62.6347 47.8748L63.5393 47.326L63.28 46.8985L68.7079 43.6061L68.9672 44.0336L69.8719 43.4848L69.6126 43.0573L75.0405 39.7649L75.2998 40.1924L76.2044 39.6436L75.9451 39.2161L81.373 35.9237L81.6323 36.3512L82.537 35.8024L82.2777 35.3749L87.7056 32.0825L87.9649 32.51L88.8695 31.9612L88.6102 31.5337L94.0381 28.2413L94.2974 28.6688L95.2021 28.12L94.9428 27.6925L100.371 24.4001L100.63 24.8276L101.082 24.5532C101.229 24.4642 101.376 24.3758 101.523 24.2879L101.267 23.8587C103.051 22.7929 104.868 21.8061 106.714 20.8984L106.935 21.3471C107.242 21.1961 107.55 21.0473 107.859 20.9006L107.644 20.449C109.519 19.5584 111.423 18.7486 113.349 18.0198L113.526 18.4874C113.846 18.3664 114.167 18.2475 114.488 18.1309L114.318 17.6609C116.267 16.9536 118.238 16.3286 120.228 15.7858L120.359 16.2682C120.689 16.1781 121.02 16.0903 121.351 16.0047L121.226 15.5206C123.232 15.0027 125.254 14.5679 127.288 14.2165L127.373 14.7092C127.71 14.6509 128.048 14.5949 128.386 14.5412L128.307 14.0474C130.351 13.7228 132.405 13.482 134.465 13.3252L134.503 13.8238C134.844 13.7978 135.186 13.7742 135.527 13.7528L135.496 13.2538C137.559 13.1249 139.627 13.0801 141.694 13.1196L141.685 13.6195C142.027 13.6261 142.369 13.6349 142.711 13.6461L142.727 13.1464C144.792 13.2139 146.855 13.3655 148.911 13.6014L148.854 14.0981C149.194 14.1371 149.533 14.1784 149.873 14.2221L149.937 13.7262C151.984 13.9893 154.023 14.3361 156.049 14.7668L155.945 15.2558C156.279 15.327 156.613 15.4004 156.947 15.4761L157.058 14.9885C159.069 15.4446 161.066 15.9838 163.043 16.606L162.893 17.083C163.219 17.1855 163.545 17.2904 163.87 17.3976L164.027 16.9227C165.983 17.5675 167.919 18.2941 169.831 19.1027L169.636 19.5632C169.951 19.6963 170.265 19.8317 170.579 19.9693L170.78 19.5115C172.663 20.3384 174.522 21.2456 176.35 22.2332L176.113 22.6731C176.264 22.7546 176.414 22.8366 176.565 22.9191L177.028 23.1736L177.269 22.7353L182.834 25.7897L182.594 26.2281L183.521 26.7372L183.762 26.2988L189.327 29.3533L189.087 29.7916L190.014 30.3007L190.255 29.8624L195.82 32.9169L195.579 33.3552L196.507 33.8642L196.748 33.4259L202.313 36.4804L202.072 36.9187L203 37.4278L203.24 36.9895L208.806 40.0439L208.565 40.4823L209.493 40.9913L209.733 40.553L215.299 43.6075L215.058 44.0458L215.986 44.5549L216.226 44.1166L221.791 47.171L221.551 47.6094L222.478 48.1184L222.719 47.6801L228.284 50.7346L228.044 51.1729L228.507 51.4275C228.658 51.51 228.808 51.593 228.958 51.6765L229.201 51.2398C231.016 52.2521 232.78 53.3327 234.489 54.4775L234.21 54.8929C234.495 55.0834 234.778 55.2757 235.059 55.4697L235.343 55.0581C237.052 56.2367 238.704 57.4801 240.299 58.7841L239.982 59.1711C240.247 59.3878 240.511 59.6061 240.772 59.8261L241.094 59.4434C242.681 60.7777 244.208 62.1728 245.673 63.6241L245.321 63.9793C245.564 64.2202 245.806 64.4627 246.045 64.7067L246.402 64.3564C247.853 65.8342 249.241 67.368 250.562 68.9535L250.178 69.2736C250.397 69.5366 250.614 69.801 250.83 70.0668L251.218 69.752C252.521 71.3595 253.757 73.0182 254.922 74.7236L254.51 75.0057C254.703 75.2883 254.894 75.5722 255.083 75.8573L255.5 75.5808C256.643 77.3033 257.716 79.0718 258.715 80.8816L258.277 81.1233C258.443 81.4229 258.606 81.7237 258.768 82.0255L259.209 81.7898C260.182 83.6115 261.083 85.4738 261.906 87.3721L261.447 87.5711C261.584 87.885 261.718 88.1998 261.85 88.5157L262.311 88.3229C263.107 90.2272 263.826 92.1665 264.466 94.1364L263.99 94.2909C264.096 94.6162 264.2 94.9424 264.301 95.2693L264.778 95.1213C265.389 97.0908 265.92 99.0898 266.371 101.114L265.882 101.222C265.957 101.556 266.029 101.89 266.098 102.225L266.588 102.124C267.008 104.14 267.347 106.18 267.602 108.241L267.106 108.302C267.148 108.641 267.188 108.981 267.225 109.321L267.722 109.266C267.948 111.311 268.092 113.374 268.151 115.452L267.651 115.466C267.656 115.637 267.66 115.809 267.664 115.98L267.675 116.509L268.175 116.498L268.313 122.845L267.813 122.856L267.836 123.914L268.335 123.903L268.473 130.25L267.973 130.261L267.996 131.318L268.496 131.308L268.633 137.655L268.133 137.665L268.156 138.723L268.656 138.712L268.793 145.059L268.294 145.07L268.316 146.128L268.816 146.117L268.954 152.464L268.454 152.475L268.477 153.533L268.977 153.522L269.114 159.869L268.614 159.88L268.637 160.937L269.137 160.927L269.274 167.274L268.774 167.284L268.797 168.342L269.297 168.331L269.435 174.678L268.935 174.689L268.946 175.218C268.95 175.389 268.953 175.561 268.956 175.732L269.456 175.725C269.486 177.803 269.432 179.87 269.295 181.923L268.796 181.89C268.774 182.231 268.749 182.572 268.721 182.913L269.22 182.953C269.053 185.022 268.803 187.075 268.471 189.108L267.977 189.027C267.922 189.365 267.865 189.702 267.805 190.039L268.298 190.126C267.935 192.168 267.491 194.188 266.966 196.182L266.483 196.055C266.396 196.386 266.306 196.716 266.215 197.046L266.697 197.18C266.143 199.175 265.508 201.144 264.795 203.081L264.326 202.908C264.208 203.229 264.088 203.55 263.965 203.869L264.432 204.048C263.691 205.98 262.873 207.88 261.979 209.742L261.528 209.526C261.38 209.834 261.23 210.142 261.077 210.448L261.525 210.671C260.605 212.522 259.61 214.335 258.542 216.106L258.114 215.848C257.937 216.141 257.758 216.432 257.578 216.723L258.002 216.987C256.912 218.741 255.749 220.452 254.517 222.114L254.115 221.817C253.911 222.092 253.706 222.365 253.498 222.637L253.896 222.941C252.644 224.582 251.324 226.174 249.938 227.713L249.567 227.379C249.338 227.633 249.107 227.886 248.875 228.137L249.242 228.477C247.841 229.99 246.376 231.45 244.848 232.852L244.51 232.483C244.258 232.714 244.005 232.944 243.749 233.172L244.082 233.545C242.546 234.916 240.948 236.23 239.292 237.482L238.991 237.083C238.718 237.289 238.444 237.493 238.168 237.696L238.464 238.099C236.806 239.316 235.091 240.472 233.321 241.562L233.059 241.136C232.913 241.226 232.767 241.316 232.62 241.405L232.168 241.679L232.427 242.107L226.999 245.399L226.74 244.971L225.835 245.52L226.095 245.948L220.667 249.24L220.407 248.813L219.503 249.361L219.762 249.789L214.334 253.081L214.075 252.654L213.17 253.203L213.43 253.63L208.002 256.923L207.742 256.495L206.838 257.044L207.097 257.471L201.669 260.764L201.41 260.336L200.505 260.885L200.764 261.313L195.337 264.605L195.077 264.178L194.173 264.726L194.432 265.154L189.004 268.446L188.745 268.019L187.84 268.567L188.099 268.995L182.671 272.287L182.412 271.86L181.96 272.134Z" stroke="#2966FF" stroke-dasharray="1 6" shape-rendering="crispEdges"/>
</g>
<defs>
<filter id="filter0_di_4_13" x="0.578125" y="0.105713" width="281.886" height="296.476" filterUnits="userSpaceOnUse" color-interpolation-filters="sRGB">
<feFlood flood-opacity="0" result="BackgroundImageFix"/>
<feColorMatrix in="SourceAlpha" type="matrix" values="0 0 0 0 0 0 0 0 0 0 0 0 0 0 0 0 0 0 127 0" result="hardAlpha"/>
<feOffset/>
<feGaussianBlur stdDeviation="6.5"/>
<feComposite in2="hardAlpha" operator="out"/>
<feColorMatrix type="matrix" values="0 0 0 0 0.160784 0 0 0 0 0.4 0 0 0 0 1 0 0 0 1 0"/>
<feBlend mode="normal" in2="BackgroundImageFix" result="effect1_dropShadow_4_13"/>
<feBlend mode="normal" in="SourceGraphic" in2="effect1_dropShadow_4_13" result="shape"/>
<feColorMatrix in="SourceAlpha" type="matrix" values="0 0 0 0 0 0 0 0 0 0 0 0 0 0 0 0 0 0 127 0" result="hardAlpha"/>
<feOffset/>
<feGaussianBlur stdDeviation="6.5"/>
<feComposite in2="hardAlpha" operator="arithmetic" k2="-1" k3="1"/>
<feColorMatrix type="matrix" values="0 0 0 0 0.160784 0 0 0 0 0.4 0 0 0 0 1 0 0 0 1 0"/>
<feBlend mode="normal" in2="shape" result="effect2_innerShadow_4_13"/>
</filter>
</defs>
</svg>
