<svg width="327" height="358" viewBox="0 0 327 358" fill="none" xmlns="http://www.w3.org/2000/svg">
<g filter="url(#filter0_d_4_14)">
<path d="M31.0281 234.086L20.9501 161.651C17.2331 134.935 28.0513 108.265 49.3297 91.6878L107.021 46.7424C128.3 30.1652 156.806 26.1992 181.801 36.3382L249.571 63.828C274.566 73.967 292.254 96.6708 295.971 123.387L306.049 195.822C309.766 222.538 298.948 249.208 277.669 265.785L219.978 310.731C198.699 327.308 170.193 331.274 145.198 321.135L77.4282 293.645C52.4328 283.506 34.7452 260.802 31.0281 234.086Z" stroke="#2966FF" shape-rendering="crispEdges"/>
</g>
<g opacity="0.7" filter="url(#filter1_f_4_14)">
<path d="M31.0281 234.086L20.9501 161.651C17.2331 134.935 28.0513 108.265 49.3297 91.6878L107.021 46.7424C128.3 30.1652 156.806 26.1992 181.801 36.3382L249.571 63.828C274.566 73.967 292.254 96.6708 295.971 123.387L306.049 195.822C309.766 222.538 298.948 249.208 277.669 265.785L219.978 310.731C198.699 327.308 170.193 331.274 145.198 321.135L77.4282 293.645C52.4328 283.506 34.7452 260.802 31.0281 234.086Z" stroke="#2966FF"/>
</g>
<defs>
<filter id="filter0_d_4_14" x="6.72839" y="17.3007" width="313.542" height="322.872" filterUnits="userSpaceOnUse" color-interpolation-filters="sRGB">
<feFlood flood-opacity="0" result="BackgroundImageFix"/>
<feColorMatrix in="SourceAlpha" type="matrix" values="0 0 0 0 0 0 0 0 0 0 0 0 0 0 0 0 0 0 127 0" result="hardAlpha"/>
<feOffset/>
<feGaussianBlur stdDeviation="6.5"/>
<feComposite in2="hardAlpha" operator="out"/>
<feColorMatrix type="matrix" values="0 0 0 0 0.160784 0 0 0 0 0.4 0 0 0 0 1 0 0 0 0.55 0"/>
<feBlend mode="normal" in2="BackgroundImageFix" result="effect1_dropShadow_4_14"/>
<feBlend mode="normal" in="SourceGraphic" in2="effect1_dropShadow_4_14" result="shape"/>
</filter>
<filter id="filter1_f_4_14" x="0.728394" y="11.3007" width="325.542" height="334.872" filterUnits="userSpaceOnUse" color-interpolation-filters="sRGB">
<feFlood flood-opacity="0" result="BackgroundImageFix"/>
<feBlend mode="normal" in="SourceGraphic" in2="BackgroundImageFix" result="shape"/>
<feGaussianBlur stdDeviation="9.5" result="effect1_foregroundBlur_4_14"/>
</filter>
</defs>
</svg>
