<svg width="1920" height="1080" viewBox="0 0 1920 1080" fill="none" xmlns="http://www.w3.org/2000/svg">
<path opacity="0.5" fill-rule="evenodd" clip-rule="evenodd" d="M0 0H1920V1080H0V0ZM162 304C162 293.507 170.507 285 181 285H558C568.493 285 577 293.507 577 304C577 314.493 568.493 323 558 323H181C170.507 323 162 314.493 162 304ZM181 682C170.507 682 162 690.507 162 701C162 711.493 170.507 720 181 720H808C818.493 720 827 711.493 827 701C827 690.507 818.493 682 808 682H181Z" fill="#06112B"/>
</svg>
