<svg width="56" height="56" viewBox="0 0 56 56" fill="none" xmlns="http://www.w3.org/2000/svg">
<path d="M49 1H7C3.68629 1 1 3.68629 1 7V49C1 52.3137 3.68629 55 7 55H49C52.3137 55 55 52.3137 55 49V7C55 3.68629 52.3137 1 49 1Z" stroke="white" stroke-width="2" stroke-linecap="round" stroke-linejoin="round"/>
<path d="M25 38C17.8 38 12 32.2 12 25C12 17.8 17.8 12 25 12C32.2 12 38 17.8 38 25C38 32.2 32.2 38 25 38ZM25 14C18.9 14 14 18.9 14 25C14 31.1 18.9 36 25 36C31.1 36 36 31.1 36 25C36 18.9 31.1 14 25 14Z" fill="white"/>
<path d="M34.6821 33.2676L43.6621 42.2476L42.2481 43.6616L33.2681 34.6816L34.6821 33.2676Z" fill="white"/>
</svg>
