<svg width="53" height="56" viewBox="0 0 53 56" fill="none" xmlns="http://www.w3.org/2000/svg">
<path d="M43.5051 52.9309L51.1362 25.9309C51.2556 25.5082 51.2755 25.0636 51.1942 24.6319C51.1129 24.2002 50.9327 23.7932 50.6676 23.443C50.4025 23.0927 50.0599 22.8086 49.6666 22.613C49.2732 22.4174 48.8399 22.3157 48.4006 22.3158H32.0855C31.8517 22.3158 31.6208 22.263 31.4102 22.1614C31.1995 22.0598 31.0145 21.912 30.8689 21.729C30.7233 21.546 30.6209 21.3325 30.5692 21.1044C30.5176 20.8763 30.5181 20.6395 30.5707 20.4116L31.2812 17.3364C31.9321 14.5156 32.141 11.6096 31.9008 8.72484L31.7701 7.15742C31.63 5.47588 30.8984 3.89841 29.7053 2.70526C28.6139 1.61363 27.1335 1.00023 25.5899 1H25.2488C24.3152 1 23.4555 1.50589 23.0036 2.32158L19.225 9.12132C17.5311 12.1709 15.006 14.6768 11.9435 16.3474L2.48074 21.5058C2.03211 21.7506 1.65779 22.1118 1.3972 22.5515C1.13661 22.9911 0.999397 23.4929 1 24.004V52.1579C1 52.9117 1.29944 53.6346 1.83244 54.1676C2.36543 54.7006 3.08833 55 3.84211 55H40.771C41.3899 54.9998 41.9917 54.7976 42.4852 54.4242C42.9787 54.0508 43.3368 53.5265 43.5051 52.9309V52.9309Z" stroke="white" stroke-width="2" stroke-linecap="round" stroke-linejoin="round"/>
</svg>
