<svg width="830" height="359" viewBox="0 0 830 359" fill="none" xmlns="http://www.w3.org/2000/svg">
<path d="M0 280.159V226.11L163.592 5.95025H247.867L87.7449 226.11L48.5819 214.706H321.731V280.159H0ZM186.892 353.05V280.159L189.37 214.706V149.749H265.218V353.05H186.892Z" fill="white"/>
<path d="M434.983 359C406.561 359 381.113 352.058 358.64 338.174C336.167 323.959 318.486 303.464 305.597 276.688C292.707 249.912 286.263 217.516 286.263 179.5C286.263 141.484 292.707 109.088 305.597 82.3121C318.486 55.5359 336.167 35.2058 358.64 21.3218C381.113 7.10727 406.561 0 434.983 0C463.736 0 489.183 7.10727 511.326 21.3218C533.799 35.2058 551.481 55.5359 564.37 82.3121C577.259 109.088 583.703 141.484 583.703 179.5C583.703 217.516 577.259 249.912 564.37 276.688C551.481 303.464 533.799 323.959 511.326 338.174C489.183 352.058 463.736 359 434.983 359ZM434.983 291.068C448.533 291.068 460.265 287.266 470.18 279.663C480.425 272.06 488.357 259.994 493.975 243.465C499.924 226.937 502.899 205.615 502.899 179.5C502.899 153.385 499.924 132.063 493.975 115.535C488.357 99.006 480.425 86.9401 470.18 79.337C460.265 71.7339 448.533 67.9323 434.983 67.9323C421.763 67.9323 410.031 71.7339 399.786 79.337C389.871 86.9401 381.94 99.006 375.991 115.535C370.372 132.063 367.563 153.385 367.563 179.5C367.563 205.615 370.372 226.937 375.991 243.465C381.94 259.994 389.871 272.06 399.786 279.663C410.031 287.266 421.763 291.068 434.983 291.068Z" fill="white"/>
<path d="M559.269 280.159V226.11L722.861 5.95025H807.136L647.014 226.11L607.851 214.706H881V280.159H559.269ZM746.161 353.05V280.159L748.639 214.706V149.749H824.486V353.05H746.161Z" fill="white"/>
</svg>
