<svg width="1920" height="1080" viewBox="0 0 1920 1080" fill="none" xmlns="http://www.w3.org/2000/svg">
<path opacity="0.5" fill-rule="evenodd" clip-rule="evenodd" d="M0 0H1920V1080H0V0ZM1586 392C1586 381.507 1594.51 373 1605 373C1615.49 373 1624 381.507 1624 392C1624 402.493 1615.49 411 1605 411C1594.51 411 1586 402.493 1586 392ZM1605 469C1594.51 469 1586 477.507 1586 488C1586 498.493 1594.51 507 1605 507C1615.49 507 1624 498.493 1624 488C1624 477.507 1615.49 469 1605 469Z" fill="#06112B"/>
</svg>
