<svg width="112" height="28" viewBox="0 0 112 28" fill="none" xmlns="http://www.w3.org/2000/svg">
    <g clip-path="url(#clip0_10_634)">
        <path fill-rule="evenodd" clip-rule="evenodd" d="M60.2175 6.78231C60.4869 7.06413 62.9114 13.7782 63.1649 14.6071C63.4174 15.4951 63.774 16.3471 64.2266 17.1435C65.0664 17.3424 65.1457 16.4638 65.3992 15.7675C66.7778 12.0043 68.8695 6.51706 69.9153 2.8202C70.6442 1.02979 70.7076 0.549034 69.3924 0.549034C68.0772 0.549034 68.2198 1.44424 67.6969 2.60469C67.2373 4.80954 65.4626 9.46792 64.8129 11.6065C64.8129 11.8883 64.8129 11.8883 64.4801 11.8883C63.3867 8.70534 62.1191 4.80954 60.8831 1.65975C60.5503 1.04637 59.964 0.913747 59.5679 2.28971C58.9023 4.47799 57.9832 7.08071 57.2702 9.20268C57.2702 9.20268 56.4145 11.8883 56.3511 12.0209C55.8979 11.2586 55.5661 10.4244 55.3686 9.55081C54.3862 7.0144 53.5305 4.27905 52.6907 1.74264C52.4847 1.26188 52.4847 0.980058 52.0251 0.698235C51.5645 0.519662 51.0665 0.473858 50.5831 0.565612C49.2838 0.781124 50.1236 1.87526 50.393 2.68758C51.9776 7.14702 53.7365 12.5017 55.4954 16.7456C55.5366 16.8508 55.6035 16.9427 55.6895 17.0122C55.7754 17.0817 55.8774 17.1262 55.985 17.1413C56.0927 17.1565 56.2022 17.1416 56.3027 17.0984C56.4031 17.0551 56.4909 16.9849 56.5571 16.8948C56.8106 16.3809 60.0274 6.78231 60.2175 6.78231Z" fill="#A1B3E3" />
        <path fill-rule="evenodd" clip-rule="evenodd" d="M0.254942 0.830137C0.18944 1.1063 0.21169 1.39727 0.318326 1.65903C0.587709 2.81948 -0.204594 16.0486 0.00140486 16.5791C0.642814 16.8809 1.36194 16.9508 2.04555 16.778C2.36247 16.4299 2.2357 16.0983 2.2357 15.5513C2.2357 13.2138 2.42585 10.9592 2.42585 8.55542C2.50508 7.66021 2.56847 7.04683 2.56847 6.49976C2.56847 5.95269 2.56847 6.01901 2.69524 5.88638C2.82201 5.75376 4.89784 9.53351 5.10384 9.94796C5.49999 10.7603 6.27645 12.0036 6.79937 12.9651C7.59167 14.4737 7.98782 13.4459 8.17798 13.0978C8.63751 12.4844 12.187 5.96927 12.4406 5.83665C12.6783 6.10189 12.6783 12.617 12.6783 13.0978C12.6783 16.662 12.2821 17.0101 14.4372 16.8609C15.1027 16.8609 15.1661 16.3139 15.1027 15.7005C15.1027 14.54 15.1027 13.2304 15.1027 12.0699C14.9284 9.11907 14.8016 5.75376 14.8016 2.81948C14.8016 2.47134 14.9284 1.16169 14.9284 0.962759C14.7344 0.734059 14.4716 0.581471 14.1835 0.530226C13.8954 0.478981 13.5991 0.532148 13.3438 0.680936C12.8843 0.96276 12.7575 1.57614 12.4247 1.99059C11.0937 4.46069 9.30305 7.26235 8.05121 9.59982C7.59167 10.4287 7.59167 10.1469 7.19552 9.59982C6.33983 8.29017 5.23061 6.03558 4.45415 4.72593L2.86954 1.99059C2.64928 1.51524 2.3666 1.07442 2.0297 0.680936C1.58601 0.349379 0.714478 0.614625 0.254942 0.830137Z" fill="#A1B3E3" />
        <path fill-rule="evenodd" clip-rule="evenodd" d="M83.8706 8.50568C84.4314 8.02692 85.0967 7.70071 85.8073 7.55609C86.5178 7.41147 87.2515 7.45293 87.943 7.67678C90.0347 8.6383 90.3041 11.871 89.385 13.4459C88.9936 14.0597 88.4297 14.5312 87.7712 14.7955C87.1128 15.0598 86.3921 15.1037 85.7087 14.9213C85.0467 14.7846 84.4201 14.5021 83.8706 14.0924V8.50568ZM83.8706 6.1682C83.7718 4.36269 83.7718 2.55275 83.8706 0.747241C83.8706 0.00123802 83.617 -0.131385 82.9515 0.133861C81.3669 0.830131 81.3669 0.548307 81.5887 2.05689C81.7155 2.81947 81.5887 11.6555 81.5887 12.8988C81.5887 15.3523 81.256 15.916 84.6629 16.9438C85.633 17.1567 86.6342 17.1621 87.6063 16.9599C88.5785 16.7576 89.5015 16.3518 90.3199 15.7668C93.6635 12.8988 92.7444 4.80882 86.6436 5.4222C86.1119 5.45231 85.5825 5.51876 85.059 5.62113C84.853 5.68744 84.0766 6.1682 83.9815 6.1682H83.8706Z" fill="#A1B3E3" />
        <path fill-rule="evenodd" clip-rule="evenodd" d="M37.6651 16.7281C37.9129 15.8636 37.9831 14.954 37.8711 14.059C37.8062 13.1209 37.8062 12.179 37.8711 11.2408C38.0612 11.2408 38.2672 11.5889 38.6634 12.0034C39.0595 12.4178 42.3238 15.9821 42.8468 16.3799C43.0292 16.5576 43.2491 16.6877 43.4887 16.7597C43.7282 16.8317 43.9806 16.8436 44.2254 16.7944C44.6849 16.7944 45.4138 16.7944 45.6674 16.4628C45.6674 15.9821 44.7483 15.2195 44.3521 14.805C43.956 14.3906 43.4489 13.8601 42.9894 13.2965C41.9815 12.3685 41.0388 11.3657 40.1688 10.2959C40.1688 10.1467 43.7658 6.9803 44.4314 6.3835C44.6849 6.10167 44.9543 6.03536 44.8909 5.62092C44.0753 5.3577 43.2028 5.3577 42.3872 5.62092C42.0703 5.77012 39.8994 7.82577 39.3131 8.37284C39.1229 8.57178 37.9979 9.81511 37.8711 9.7488C37.6809 9.11884 37.8711 0.548093 37.7443 0.0673354C37.6175 -0.413422 35.3833 0.349159 35.4466 1.17805C35.5709 1.76044 35.6346 2.35517 35.6368 2.95188V14.805C35.6368 15.2195 35.51 16.4628 35.7794 16.6618C36.3959 16.8266 37.0394 16.8492 37.6651 16.7281Z" fill="#A1B3E3" />
        <path fill-rule="evenodd" clip-rule="evenodd" d="M20.5927 11.1061C21.3216 10.9071 23.7619 11.5205 23.8728 12.2002C23.9362 12.9337 23.9362 13.6716 23.8728 14.4051C23.4133 15.0184 20.2599 16.2452 19.2141 14.0569C19.0731 13.7461 19 13.4063 19 13.0622C19 12.7182 19.0731 12.3784 19.2141 12.0676C19.3662 11.8148 19.5677 11.5985 19.8052 11.4328C20.0428 11.2671 20.3111 11.1558 20.5927 11.1061ZM23.9362 10.2772C23.3205 9.85041 22.6318 9.55207 21.9079 9.39854C21.0058 9.29404 20.0932 9.36144 19.2141 9.59747C18.4739 9.81926 17.8213 10.2837 17.3522 10.9224C16.883 11.5611 16.6222 12.3405 16.608 13.1458C16.5938 13.9512 16.827 14.7401 17.2733 15.3965C17.7196 16.0528 18.3554 16.5421 19.0873 16.7923C20.3407 17.2394 21.7004 17.2394 22.9537 16.7923C23.2231 16.6596 23.746 16.3115 23.9362 16.2452C24.1263 16.1789 24.2056 16.726 24.4591 16.8586C24.7127 16.9912 25.9011 16.8586 26.2339 16.527C26.5666 16.1955 26.63 16.2452 26.424 15.7644C26.1174 15.1301 26.0067 14.4118 26.1071 13.7088V8.76858C26.19 8.06908 26.0267 7.36193 25.6476 6.77924C24.3957 4.17651 16.853 5.20434 17.4552 7.40919C18.0573 9.61405 19.0398 6.64661 22.3674 7.06106C24.158 7.25999 23.9679 9.0504 23.9679 10.2772H23.9362Z" fill="#A1B3E3" />
        <path fill-rule="evenodd" clip-rule="evenodd" d="M101.51 9.94686H96.0752C96.1481 9.26617 96.445 8.63319 96.9151 8.15645C97.4282 7.68568 98.0729 7.40078 98.7532 7.34413C99.1076 7.31351 99.4642 7.35791 99.8018 7.4747C100.139 7.59148 100.451 7.77824 100.718 8.02383C100.987 8.25524 101.199 8.55046 101.337 8.88494C101.475 9.21941 101.534 9.58348 101.51 9.94686ZM95.9326 11.7207C96.3288 11.5218 102.271 11.7207 103.349 11.7207C104.426 11.7207 103.935 8.02383 101.97 6.51524C101.167 5.88914 100.212 5.51332 99.2134 5.43117C98.2152 5.34902 97.2151 5.5639 96.3287 6.05099C95.4423 6.53808 94.7056 7.27753 94.2037 8.18395C93.7018 9.09038 93.4552 10.1268 93.4923 11.1736C93.4547 12.1903 93.6808 13.1987 94.1467 14.0918C94.6126 14.985 95.3009 15.7295 96.1386 16.2464C97.8975 17.4898 102.62 17.4235 103.206 15.5004C103.935 13.0303 102.223 14.4063 101.621 14.6715C101.115 14.8887 100.581 15.0283 100.037 15.086C96.5348 15.5004 95.6791 12.2678 95.9326 11.7207Z" fill="#A1B3E3" />
        <path fill-rule="evenodd" clip-rule="evenodd" d="M72.1441 9.9458C72.1997 9.23773 72.5074 8.57732 73.0063 8.09531C73.5052 7.61331 74.1589 7.34484 74.838 7.34307C76.2007 7.19387 77.7853 8.43721 77.5159 9.9458H72.1441ZM71.8747 11.6036C72.2075 11.6036 78.3716 11.6036 79.2273 11.6036C80.083 11.6036 79.9404 11.0565 79.877 10.3768C79.8307 9.45634 79.5567 8.56422 79.0817 7.78786C78.6068 7.01149 77.9472 6.37751 77.1676 5.948C76.3881 5.51849 75.5152 5.30818 74.6346 5.33769C73.754 5.36719 72.8958 5.63549 72.1441 6.11631C71.2989 6.63872 70.6077 7.39479 70.1464 8.30142C69.6851 9.20806 69.4717 10.2302 69.5295 11.2554C69.4623 12.2675 69.6801 13.2781 70.1561 14.162C70.632 15.0459 71.3453 15.7645 72.2075 16.2288C74.4418 17.6711 78.8312 17.0577 79.2273 15.4165C79.2273 14.9357 79.5442 13.7587 78.8312 14.0405C77.9698 14.55 77.0322 14.9031 76.0581 15.0849C75.5388 15.1575 75.011 15.1216 74.5051 14.9793C73.9991 14.8371 73.5252 14.5912 73.1107 14.256C72.5403 13.7753 71.6212 12.333 71.8747 11.6036Z" fill="#A1B3E3" />
        <path fill-rule="evenodd" clip-rule="evenodd" d="M107.465 16.7948C107.861 16.3803 107.798 16.1814 107.798 15.568V13.9102C107.798 11.722 107.401 8.0914 109.826 7.54433C110.349 7.41171 110.476 7.87589 111.141 7.74326C111.534 7.37488 111.828 6.9066 111.997 6.38388C111.997 5.33947 110.412 5.14054 108.97 5.82023C108.511 6.03574 108.13 6.78175 107.798 6.84806C107.798 6.23468 107.924 5.96943 107.528 5.42236C107.02 5.47332 106.529 5.63723 106.086 5.90312C105.437 6.23468 105.31 6.23468 105.437 7.06357C105.563 7.89246 105.437 13.5787 105.437 14.9381C105.5 17.0103 105.5 16.944 107.465 16.7948Z" fill="#A1B3E3" />
        <path fill-rule="evenodd" clip-rule="evenodd" d="M30.2027 16.7284V16.5958C30.3867 14.9121 30.4344 13.2151 30.3454 11.523C30.3454 10.2133 30.6623 8.09136 32.0409 7.67692C33.1501 7.26247 33.2135 8.35661 33.9424 7.67692C35.638 5.8202 33.3561 5.07419 31.9775 5.68758C30.5989 6.30096 30.7891 6.78171 30.3929 6.91434C30.3611 6.64459 30.3611 6.37177 30.3929 6.10202C30.3929 5.75389 30.2503 5.75389 30.1235 5.55495C29.6154 5.55063 29.1162 5.69411 28.6815 5.9694C28.0318 6.23464 27.8258 6.30096 28.0318 7.12985C28.1712 8.4008 28.2136 9.68134 28.1586 10.9593V14.7391C28.3012 16.7947 28.0318 16.9439 30.2027 16.7284Z" fill="#A1B3E3" />
        <path fill-rule="evenodd" clip-rule="evenodd" d="M59.7595 18.9347C57.1436 19.2723 54.5715 19.9117 52.09 20.8411C51.3135 21.1893 50.5054 21.3882 49.7289 21.7363C48.1443 22.3497 46.6548 22.8968 45.086 23.5267C44.5631 23.7257 40.8234 24.8861 40.1737 25.0353C37.0045 25.8476 32.2507 26.8092 29.2241 25.3669C27.7821 24.6209 27.6395 26.9418 30.9196 27.7707C32.8379 28.1221 34.8063 28.0316 36.6876 27.5054C38.2722 27.1573 40.1737 26.5439 41.6791 26.0632C43.1845 25.5824 44.9593 25.0353 46.5914 24.5546C46.9876 24.4054 47.3045 24.2728 47.764 24.1401L50.1885 23.3775C50.648 23.2449 50.9808 23.046 51.3769 22.8968L53.8806 22.2834C54.3401 22.1508 54.6729 22.0182 55.0691 21.869C58.3867 21.1285 61.7707 20.7617 65.163 20.7748C66.0028 20.7748 67.2547 20.9903 68.1104 21.123C69.695 21.3219 69.3464 20.4433 68.3005 19.8796C65.5813 18.7896 62.6365 18.4638 59.7595 18.9347Z" fill="#A1B3E3" />
    </g>
    <defs>
        <clipPath id="clip0_10_634">
            <rect width="112" height="28" fill="white" />
        </clipPath>
    </defs>
</svg>