<?xml version="1.0" standalone="no"?>
<!DOCTYPE svg PUBLIC "-//W3C//DTD SVG 20010904//EN"
 "http://www.w3.org/TR/2001/REC-SVG-20010904/DTD/svg10.dtd">
<svg version="1.0" xmlns="http://www.w3.org/2000/svg"
 width="1056.000000pt" height="1056.000000pt" viewBox="0 0 1056.000000 1056.000000"
 preserveAspectRatio="xMidYMid meet">
<metadata>
Created by potrace 1.14, written by Peter Selinger 2001-2017
</metadata>
<g transform="translate(0.000000,1056.000000) scale(0.100000,-0.100000)"
fill="#000000" stroke="none">
<path d="M2705 9745 c-50 -12 -103 -34 -140 -58 -19 -12 -101 -92 -141 -138
-20 -24 -114 -166 -114 -174 0 -3 -170 -293 -191 -325 -5 -8 -12 -23 -15 -32
-4 -10 -10 -18 -15 -18 -5 0 -9 -4 -9 -9 0 -12 -213 -375 -222 -379 -5 -2 -8
-8 -8 -14 0 -6 -14 -34 -32 -62 -17 -28 -39 -66 -50 -83 -57 -102 -175 -304
-188 -323 -6 -8 -15 -27 -21 -42 -6 -16 -15 -28 -19 -28 -5 0 -12 -9 -15 -21
-8 -25 -85 -151 -98 -160 -5 -3 -8 -9 -8 -13 3 -17 -1 -25 -19 -46 -11 -13
-20 -29 -20 -37 0 -7 -4 -13 -10 -13 -5 0 -10 -4 -10 -9 0 -5 -36 -70 -80
-145 -44 -74 -80 -140 -80 -145 0 -6 -4 -11 -8 -11 -4 0 -21 -25 -37 -56 -17
-30 -35 -63 -40 -72 -27 -45 -71 -118 -80 -134 -5 -10 -47 -81 -92 -158 -46
-77 -83 -144 -83 -149 0 -5 -3 -11 -7 -13 -15 -6 -63 -106 -63 -129 0 -24 54
-79 77 -79 6 0 13 -4 15 -9 2 -5 62 -47 133 -94 142 -93 140 -92 173 -27 13
27 34 64 69 120 11 19 30 51 41 70 11 19 108 186 217 370 264 447 255 433 262
453 3 9 9 17 14 17 5 0 9 4 9 9 0 5 18 38 39 73 21 35 47 80 58 99 10 19 52
90 92 159 41 69 116 196 168 283 51 87 93 160 93 163 0 3 42 73 78 129 6 11
15 27 19 35 4 8 18 33 31 55 14 22 24 40 22 40 -3 0 10 21 28 47 18 26 32 49
32 52 0 3 17 34 38 68 21 35 50 83 64 108 14 25 49 86 78 135 29 50 64 110 78
135 32 59 67 95 111 116 32 16 80 18 441 19 223 1 413 5 423 9 26 12 31 46 30
214 -1 189 -6 220 -39 232 -40 16 -918 11 -979 -5z"/>
<path d="M4239 9745 c-34 -19 -39 -42 -40 -178 0 -61 0 -119 0 -127 -1 -47 11
-124 21 -134 14 -14 1990 -17 2033 -3 15 5 32 17 37 27 6 11 9 97 7 202 -2
167 -4 186 -21 204 -19 18 -47 19 -1015 21 -851 2 -1000 0 -1022 -12z"/>
<path d="M7048 9746 c-10 -7 -20 -30 -24 -52 -9 -58 -10 -275 -1 -281 4 -2 3
-11 -1 -19 -5 -9 -4 -30 2 -49 12 -37 41 -54 91 -54 17 1 77 1 135 1 58 -1
124 1 148 2 24 1 59 -5 81 -15 41 -18 96 -70 113 -104 5 -11 19 -37 31 -57 19
-31 282 -484 307 -528 5 -8 23 -40 41 -70 17 -30 40 -69 50 -86 9 -17 23 -42
31 -55 7 -13 15 -26 18 -29 3 -3 13 -21 24 -40 28 -53 52 -94 80 -139 15 -22
26 -43 26 -45 0 -3 29 -53 65 -111 36 -59 65 -111 65 -116 0 -5 5 -9 12 -9 6
0 8 -3 5 -7 -4 -3 -1 -13 6 -22 7 -9 33 -50 57 -91 102 -176 100 -174 138
-142 12 9 44 33 72 52 28 19 72 51 99 70 26 19 58 42 71 50 12 8 30 22 40 30
10 8 27 20 37 26 17 11 17 13 -4 55 -38 76 -78 144 -85 147 -5 2 -8 7 -8 12 0
5 -34 66 -75 135 -41 70 -75 130 -75 134 0 4 -7 16 -15 26 -14 18 -223 374
-238 406 -4 8 -17 30 -30 50 -23 37 -126 212 -166 282 -13 23 -33 58 -46 77
-51 80 -185 311 -185 320 0 6 -4 10 -9 10 -5 0 -12 8 -15 18 -8 24 -102 122
-141 147 -35 23 -86 48 -135 66 -51 19 -568 24 -592 5z"/>
<path d="M3637 8385 c-4 -8 -4 -24 -2 -37 3 -13 7 -43 10 -68 11 -91 17 -136
21 -165 3 -16 7 -50 9 -75 5 -57 10 -97 29 -245 14 -113 26 -208 31 -265 2
-14 4 -25 4 -25 1 0 4 -25 7 -55 2 -30 7 -80 10 -110 3 -30 7 -73 9 -95 16
-204 48 -322 114 -418 30 -44 55 -71 137 -149 27 -25 103 -103 169 -173 66
-69 161 -168 210 -220 50 -51 158 -164 240 -251 216 -226 234 -242 236 -207 3
27 0 74 -6 108 -3 17 -8 55 -10 85 -3 30 -7 69 -10 85 -2 17 -7 48 -9 70 -15
122 -18 149 -22 172 -3 13 -7 45 -9 71 -3 26 -7 65 -9 87 -3 22 -8 65 -11 95
-3 30 -8 64 -10 75 -2 11 -7 47 -10 80 -7 61 -11 95 -20 163 -5 33 -8 65 -20
182 -2 19 -4 35 -5 35 -1 0 -3 14 -5 30 -17 134 -47 185 -202 342 -70 72 -195
201 -278 288 -82 87 -170 179 -195 205 -25 26 -101 107 -170 180 -225 239
-222 236 -233 205z"/>
<path d="M9219 7259 c-8 -8 -22 -18 -31 -24 -37 -22 -294 -199 -310 -212 -15
-13 -14 -20 19 -81 19 -37 47 -87 62 -112 14 -25 32 -54 38 -65 7 -11 40 -67
74 -125 58 -99 72 -122 118 -202 10 -18 38 -67 63 -108 48 -80 84 -144 114
-200 11 -19 22 -37 25 -40 3 -3 23 -36 44 -75 21 -38 42 -71 47 -73 4 -2 8 -7
8 -12 0 -5 27 -54 60 -110 33 -56 60 -106 60 -111 0 -5 5 -9 10 -9 6 0 10 -6
10 -14 0 -7 7 -19 15 -26 8 -7 13 -16 10 -20 -3 -5 -2 -10 3 -12 4 -1 45 -68
92 -148 81 -138 85 -148 84 -202 -1 -51 -8 -67 -77 -185 -42 -70 -81 -134 -87
-140 -6 -7 -8 -13 -4 -13 4 0 0 -8 -8 -17 -8 -10 -32 -49 -53 -87 l-38 -69 34
-28 c19 -16 38 -29 42 -29 4 0 13 -5 20 -10 7 -6 71 -50 143 -99 89 -60 133
-84 140 -77 37 42 81 109 149 226 44 74 82 137 85 140 5 5 43 76 85 160 46 93
62 231 40 345 -10 48 -58 155 -98 218 -20 31 -37 59 -37 62 0 2 -27 49 -60
104 -33 55 -60 104 -60 110 0 5 -4 11 -8 13 -5 2 -15 15 -23 30 -8 16 -66 117
-129 225 -63 108 -124 213 -135 233 -11 19 -23 37 -27 38 -5 2 -8 8 -8 12 0 5
-29 57 -63 117 -35 59 -101 171 -145 247 -45 76 -82 143 -82 147 0 5 -4 9 -10
9 -5 0 -10 4 -10 9 0 5 -19 42 -42 81 -24 40 -56 96 -73 125 -53 93 -59 100
-76 84z"/>
<path d="M5612 6862 c-12 -29 -172 -518 -194 -589 -7 -24 -17 -43 -21 -43 -5
0 -6 -4 -3 -8 3 -5 -3 -32 -14 -59 -10 -28 -16 -53 -13 -57 4 -3 0 -6 -7 -6
-7 0 -11 -2 -8 -6 3 -3 -10 -51 -29 -107 -19 -56 -36 -106 -37 -112 -1 -5 -8
-28 -15 -50 -7 -22 -14 -46 -16 -53 -3 -7 -5 -14 -5 -17 0 -3 -7 -22 -16 -43
-20 -47 -25 -156 -8 -203 12 -35 43 -102 167 -359 33 -69 61 -127 62 -130 1
-6 66 -141 187 -390 53 -107 108 -221 122 -252 15 -32 29 -58 31 -58 7 0 44
91 110 272 37 101 71 192 75 203 5 11 30 76 55 145 26 69 54 139 62 157 8 18
28 72 43 120 26 78 29 100 26 193 -1 59 -8 115 -15 128 -7 13 -14 31 -16 40
-4 14 -193 526 -212 572 -3 8 -7 18 -8 23 -2 4 -3 8 -5 10 -1 1 -3 9 -5 17 -3
13 -83 231 -115 315 -6 17 -11 30 -10 30 1 0 -48 135 -59 160 -21 48 -36 91
-33 98 1 4 -3 7 -9 7 -5 0 -8 3 -6 8 8 13 -11 50 -31 61 -17 9 -21 6 -30 -17z"/>
<path d="M390 6097 c-8 -12 -13 -25 -12 -29 1 -5 -2 -8 -7 -8 -5 0 -11 -8 -14
-17 -4 -10 -21 -43 -39 -74 -18 -31 -50 -88 -72 -125 -21 -38 -41 -71 -45 -74
-3 -3 -12 -16 -19 -30 -12 -26 -20 -38 -90 -156 -66 -110 -85 -173 -86 -284
-1 -95 4 -138 22 -195 16 -51 46 -115 54 -115 5 0 8 -4 8 -10 0 -5 18 -39 40
-75 22 -36 40 -70 40 -75 0 -6 4 -10 9 -10 5 0 11 -8 15 -17 3 -10 13 -32 23
-48 40 -66 119 -201 128 -217 13 -23 130 -225 153 -263 9 -16 20 -31 25 -33 4
-2 7 -8 7 -14 0 -6 14 -34 32 -62 17 -28 39 -64 48 -81 9 -16 54 -93 99 -169
44 -76 81 -141 81 -143 0 -2 15 -27 33 -56 18 -28 38 -61 44 -72 7 -11 33 -56
59 -100 25 -44 60 -105 77 -135 17 -30 34 -56 39 -58 4 -2 8 -8 8 -13 0 -5 20
-42 43 -82 41 -67 95 -159 137 -232 9 -16 54 -93 100 -170 45 -77 94 -160 108
-185 14 -25 42 -72 62 -105 20 -34 39 -68 43 -75 4 -8 19 -33 32 -55 14 -22
28 -48 32 -58 3 -9 9 -17 14 -17 5 0 9 -5 9 -11 0 -6 7 -17 15 -25 8 -8 19
-22 24 -32 8 -14 12 -15 35 -3 14 8 35 22 45 33 11 10 22 18 25 18 5 0 222
145 252 169 l22 17 -28 59 c-15 33 -59 113 -99 179 -39 65 -71 123 -71 127 0
5 -4 9 -10 9 -5 0 -10 4 -10 9 0 7 -189 336 -251 436 -10 17 -22 37 -26 45 -4
8 -47 82 -95 163 -48 81 -88 152 -88 157 0 6 -4 10 -8 10 -4 0 -13 12 -20 28
-6 15 -21 42 -32 59 -49 80 -61 100 -73 123 -7 14 -25 44 -40 67 -15 24 -27
45 -27 48 0 3 -18 34 -39 68 -58 93 -91 150 -98 170 -3 9 -8 17 -12 17 -4 0
-13 16 -21 35 -8 19 -17 35 -22 35 -4 0 -8 4 -8 9 0 6 -86 157 -150 261 -5 8
-43 74 -85 145 -41 72 -79 137 -84 145 -19 30 -104 175 -122 208 -11 18 -27
45 -36 59 -11 17 -17 45 -17 82 1 46 7 66 35 111 19 30 37 57 40 60 3 3 12 20
20 38 8 17 17 32 21 32 5 0 8 7 8 15 0 8 5 15 10 15 6 0 10 6 10 13 0 7 11 28
24 47 19 29 75 130 133 240 12 23 10 27 -15 50 -51 47 -167 130 -181 130 -5 0
-14 7 -21 15 -7 9 -15 13 -18 11 -3 -3 -17 3 -31 13 -14 10 -44 25 -67 34 -39
15 -41 15 -54 -6z"/>
<path d="M3546 5868 c14 -29 33 -61 42 -70 8 -10 11 -18 6 -18 -5 0 -4 -4 2
-8 5 -4 48 -72 95 -152 46 -79 89 -154 96 -165 7 -11 15 -26 19 -34 4 -7 38
-65 76 -128 37 -63 68 -118 68 -124 0 -5 5 -9 10 -9 6 0 10 -4 10 -9 0 -5 27
-55 60 -110 33 -56 60 -104 60 -108 0 -3 6 -14 14 -22 7 -9 25 -36 38 -61 82
-147 155 -260 190 -293 35 -33 133 -87 158 -87 4 0 57 -18 117 -39 59 -22 180
-65 268 -95 88 -31 167 -59 175 -63 8 -3 20 -7 25 -8 6 0 18 -4 28 -8 26 -11
51 -20 62 -23 15 -4 228 -81 248 -89 14 -6 16 -3 11 11 -14 41 -79 179 -86
182 -5 2 -8 9 -8 15 0 7 -15 44 -34 82 -18 39 -64 133 -100 210 -37 77 -77
160 -89 184 -12 25 -22 47 -22 50 -1 3 -7 17 -15 31 -8 14 -15 27 -15 30 0 3
-18 41 -39 85 -37 76 -74 160 -76 170 -2 11 -71 137 -82 150 -45 54 -89 88
-152 119 -74 36 -124 58 -141 62 -11 2 -160 60 -190 74 -19 8 -143 57 -350
137 -49 19 -101 39 -115 45 -14 6 -34 14 -45 18 -11 4 -32 12 -47 19 -16 6
-38 15 -50 20 -13 5 -57 22 -98 39 -41 16 -92 32 -113 36 l-38 7 27 -53z"/>
<path d="M6573 5268 c-6 -13 -15 -34 -21 -48 -13 -32 -75 -230 -77 -250 -1 -8
-9 -35 -18 -60 -8 -25 -30 -92 -47 -150 -17 -58 -33 -111 -36 -118 -2 -7 -4
-14 -4 -17 0 -3 -8 -24 -16 -47 -9 -24 -17 -50 -19 -58 -2 -8 -4 -16 -5 -17
-2 -2 -4 -7 -5 -13 -1 -5 -3 -11 -4 -12 -2 -2 -4 -13 -7 -25 -2 -12 -11 -41
-19 -65 -9 -24 -23 -65 -31 -93 -8 -27 -31 -98 -50 -156 -19 -58 -37 -114 -39
-125 -3 -10 -18 -57 -33 -104 -25 -73 -29 -99 -27 -180 2 -92 8 -116 56 -240
8 -19 20 -41 27 -48 6 -7 12 -17 12 -22 0 -7 41 -96 166 -355 21 -44 38 -82
39 -85 3 -13 235 -492 242 -500 9 -10 33 34 53 99 12 36 25 73 29 81 5 9 12
31 16 50 4 19 11 41 16 50 4 8 40 114 79 235 40 121 76 229 80 240 5 11 16 45
25 75 9 30 19 62 22 70 3 8 38 112 78 230 88 261 90 289 30 440 -46 117 -52
133 -54 142 -1 4 -20 50 -41 103 -22 52 -40 102 -40 110 0 8 -4 15 -10 15 -5
0 -10 9 -10 20 0 11 -4 28 -10 38 -8 14 -27 58 -35 82 -1 3 -7 18 -13 33 -7
16 -12 31 -12 34 0 3 -6 19 -14 36 -11 27 -37 93 -101 262 -5 11 -9 25 -11 30
-1 6 -17 44 -34 85 -17 41 -33 80 -35 85 -22 71 -60 158 -71 162 -6 2 -15 -7
-21 -19z"/>
<path d="M4162 4153 c18 -46 38 -86 59 -123 12 -19 64 -111 116 -205 53 -93
124 -219 158 -280 35 -60 78 -137 96 -170 18 -33 42 -76 54 -95 12 -19 28 -50
36 -67 8 -18 17 -33 21 -33 5 0 8 -4 8 -9 0 -19 153 -277 182 -307 32 -34 67
-51 243 -119 244 -95 301 -117 327 -131 15 -8 29 -14 30 -14 2 1 17 -4 33 -10
34 -13 140 -53 170 -65 11 -5 23 -7 28 -7 4 1 7 -3 7 -10 0 -6 3 -9 6 -5 5 5
68 -18 159 -58 71 -31 201 -79 208 -77 4 1 7 -2 7 -6 0 -5 6 -9 13 -9 6 0 36
-10 65 -22 28 -11 52 -18 52 -15 0 4 7 1 15 -6 20 -16 37 -3 29 23 -6 21 -79
178 -130 281 -13 28 -24 56 -24 63 0 7 -5 13 -11 13 -5 0 -7 5 -4 10 3 6 1 10
-4 10 -6 0 -11 7 -11 16 0 8 -11 35 -25 60 -14 25 -25 51 -25 59 0 8 -4 15
-10 15 -5 0 -10 4 -10 10 0 9 -19 52 -98 220 -22 47 -61 130 -86 185 -78 167
-89 185 -126 223 -64 65 -79 74 -245 142 -144 60 -184 77 -250 106 -22 9 -44
18 -50 19 -5 2 -36 14 -67 29 -31 14 -59 26 -61 26 -2 0 -26 10 -53 22 -27 12
-53 23 -59 24 -5 1 -35 13 -65 27 -30 14 -145 62 -255 107 -110 45 -211 87
-225 93 -14 6 -28 11 -32 12 -5 2 -10 4 -13 5 -3 1 -8 3 -12 5 -10 2 -36 13
-102 42 -72 31 -84 31 -69 -4z"/>
<path d="M9194 4132 c-11 -20 -36 -64 -54 -97 -18 -33 -36 -62 -39 -65 -9 -8
-30 -42 -41 -68 -5 -12 -25 -46 -43 -75 -19 -29 -45 -72 -59 -97 -14 -25 -56
-97 -93 -160 -37 -63 -77 -131 -87 -150 -11 -19 -24 -39 -28 -45 -4 -5 -19
-30 -32 -55 -14 -25 -55 -96 -92 -158 -36 -62 -66 -117 -66 -123 0 -5 -4 -9
-8 -9 -5 0 -19 -22 -32 -50 -13 -27 -27 -50 -31 -50 -4 0 -11 -10 -15 -22 -3
-11 -31 -61 -60 -110 -30 -49 -54 -93 -54 -98 0 -6 -4 -10 -9 -10 -5 0 -11 -8
-14 -17 -3 -10 -19 -40 -35 -68 -84 -144 -142 -241 -151 -251 -5 -7 -8 -14 -5
-17 2 -2 -2 -10 -11 -17 -8 -7 -15 -19 -15 -26 0 -8 -4 -14 -10 -14 -5 0 -10
-4 -10 -10 0 -5 -27 -55 -60 -111 -33 -55 -60 -105 -60 -110 0 -5 -4 -9 -9 -9
-5 0 -12 -11 -15 -25 -4 -14 -11 -25 -16 -25 -6 0 -10 -4 -10 -9 0 -7 -77
-144 -207 -366 -23 -38 -41 -74 -41 -79 0 -5 -4 -12 -9 -15 -5 -3 -31 -44 -58
-91 -102 -178 -111 -184 -310 -186 -156 -1 -188 -9 -202 -51 -12 -39 -8 -322
5 -354 14 -35 35 -38 270 -38 182 0 263 10 307 37 6 4 16 7 22 8 23 4 142 94
170 129 28 35 123 193 165 273 12 23 25 42 30 42 4 0 8 9 8 20 0 11 4 20 8 20
5 0 15 12 23 28 7 15 32 59 55 97 23 39 74 126 114 195 40 69 102 174 136 234
35 60 64 110 64 112 0 2 13 22 28 46 15 24 37 60 47 81 11 20 23 37 27 37 5 0
8 5 8 11 0 6 32 66 72 133 39 66 79 134 87 149 9 16 21 36 26 46 40 67 141
237 206 349 44 72 79 137 79 142 0 6 5 10 10 10 6 0 10 5 10 10 0 6 20 43 44
83 98 162 216 368 216 377 0 4 3 10 8 12 4 2 16 19 26 38 10 19 35 62 54 95
68 118 81 141 108 190 14 28 35 62 45 76 17 25 18 27 1 41 -19 17 -359 248
-364 248 -2 0 -12 -17 -24 -38z"/>
<path d="M2391 1922 c-8 -3 -70 -42 -138 -88 -69 -46 -129 -84 -134 -84 -5 0
-9 -4 -9 -9 0 -5 -8 -12 -17 -16 -10 -3 -31 -16 -47 -29 l-29 -24 47 -76 c25
-42 46 -81 46 -86 0 -4 4 -10 8 -12 4 -1 19 -23 33 -48 57 -100 75 -131 157
-265 47 -77 89 -141 94 -143 4 -2 8 -10 8 -17 0 -20 95 -120 138 -147 20 -12
40 -27 44 -32 4 -6 8 -8 8 -3 0 4 14 1 30 -8 17 -9 30 -13 30 -10 0 3 10 0 23
-7 17 -9 124 -13 442 -14 404 -1 421 -1 442 18 20 19 21 29 23 188 1 178 -6
214 -44 227 -12 4 -168 8 -347 8 -351 1 -369 4 -419 55 -14 14 -40 55 -59 90
-19 36 -66 117 -104 180 -64 105 -79 130 -119 201 -7 13 -15 26 -18 29 -3 3
-11 15 -17 28 -7 12 -19 32 -25 45 -7 12 -16 24 -19 27 -3 3 -8 10 -10 16 -2
6 -10 9 -18 6z"/>
<path d="M4065 1241 c-26 -5 -55 -39 -56 -65 -4 -85 -1 -288 5 -319 5 -26 14
-41 29 -46 12 -4 529 -8 1149 -7 1068 1 1128 2 1145 19 16 15 18 39 20 188 2
156 -6 217 -26 220 -3 0 -15 3 -26 6 -23 6 -2210 10 -2240 4z"/>
</g>
</svg>
